<svg id="Capa_1" enable-background="new 0 0 512 512" height="512" viewBox="0 0 512 512" width="512" xmlns="http://www.w3.org/2000/svg"><g><g><g><path d="m65.239 60.865c0 29.03 23.372 52.69 52.287 53.186l14.616-53.983-14.617-52.39c-28.914.497-52.286 24.156-52.286 53.187z" fill="#fee1dc"/><path d="m118.448 7.655c-.31 0-.615.018-.923.023v106.372c.308.005.613.023.923.023 29.34 0 53.209-23.87 53.209-53.209s-23.869-53.209-53.209-53.209z" fill="#febfb5"/></g><g><path d="m98.594 144.078c-44.219 0-81.731 29.261-94.193 69.437l9.885 12.085 22.237-12.085c5.553-11.775 14.361-21.722 25.253-28.683v118.137l55.75 21.717 14.616-91.555-14.616-89.054h-18.932z" fill="#8ee5c7"/><path d="m136.456 144.078h-18.931v180.608l4.094 1.595 53.529-23.311v-116.895c10.028 6.881 18.148 16.349 23.379 27.44l18.006 8.094 14.115-8.094c-12.461-40.176-49.973-69.437-94.192-69.437z" fill="#69caaa"/></g><g><path d="m61.776 302.969v201.376h55.749l19.241-112.682-19.241-88.694z" fill="#5d6898"/><path d="m117.525 302.969h57.623v201.375h-57.623z" fill="#414c7f"/></g><path d="m0 242.672v85.302h30v-85.302c0-10.422 2.347-20.302 6.523-29.157h-32.122c-2.859 9.219-4.401 19.011-4.401 29.157z" fill="#fee1dc"/><g><path d="m198.528 213.515c4.176 8.855 6.523 18.735 6.523 29.157v85.302h30v-85.302c0-10.146-1.542-19.938-4.401-29.157z" fill="#febfb5"/></g></g><g><g><path d="m342.188 60.865c0 29.03 23.372 52.69 52.287 53.186l14.616-53.983-14.616-52.39c-28.915.497-52.287 24.156-52.287 53.187z" fill="#fee1dc"/><path d="m395.397 7.655c-.31 0-.615.018-.923.023v106.372c.308.005.613.023.923.023 29.34 0 53.209-23.87 53.209-53.209s-23.869-53.209-53.209-53.209z" fill="#febfb5"/></g><g><path d="m375.543 144.078c-44.219 0-81.731 29.261-94.193 69.437l9.885 12.085 22.237-12.085c5.553-11.775 14.361-21.722 25.253-28.683v118.137l55.75 21.717 14.616-91.555-14.616-89.054h-18.932z" fill="#edf5ff"/><path d="m413.405 144.078h-18.931v180.608l4.094 1.595 53.529-23.311v-116.895c10.028 6.881 18.148 16.349 23.379 27.44l18.006 8.094 14.115-8.094c-12.46-40.176-49.973-69.437-94.192-69.437z" fill="#d6e8fd"/></g><g><path d="m338.725 302.969v201.376h55.75l19.24-112.682-19.24-88.694z" fill="#80eaff"/><path d="m394.475 302.969h57.623v201.375h-57.623z" fill="#4de1ff"/></g><path d="m276.949 242.672v85.302h30v-85.302c0-10.422 2.347-20.302 6.523-29.157h-32.122c-2.859 9.219-4.401 19.011-4.401 29.157z" fill="#fee1dc"/><g><path d="m475.477 213.515c4.176 8.855 6.523 18.735 6.523 29.157v85.302h30v-85.302c0-10.146-1.542-19.938-4.401-29.157z" fill="#febfb5"/></g></g><g><g><path d="m316.516 111.115-48.258-48.258-21.213 21.213 12.357 12.357h-53.918v14.688l56.819 5.595z" fill="#f69"/></g><path d="m205.484 111.115v15.312h53.294l-11.733 11.732 21.213 21.213 48.258-48.257z" fill="#f37"/><g><path d="m195.484 421.573 48.258-48.258 21.213 21.213-12.357 12.357h53.918v14.688l-56.819 5.595z" fill="#f69"/></g><path d="m306.516 421.573v15.312h-53.294l11.733 11.733-21.213 21.212-48.258-48.257z" fill="#f37"/></g></g></svg>