<svg id="Capa_1" enable-background="new 0 0 512 512" height="512" viewBox="0 0 512 512" width="512" xmlns="http://www.w3.org/2000/svg"><g><g><path d="m0 0v95.962l109.826 30.621 96.707-30.621-10.737-95.962z" fill="#d6e8fd"/><path d="m0 191.923h195.796l11.513-89.027-.776-6.934h-206.533z" fill="#b6dcfe"/></g><g><g><g><path d="m322.051 87.89h30.014v70.754h-30.014z" fill="#69caaa" transform="matrix(.566 -.825 .825 .566 44.756 331.503)"/></g></g><g><path d="m510.685 459.586c-9.298-38.778-47.469-63.389-86.654-55.871l-124.912 23.997-243.581-96.841-55.538 18.921v132.566l107.525-35.915 174.464 65.557 230.011-47.372z" fill="#fee1dc"/><path d="m55.538 330.871 48.209-17.053c32.306-11.428 67.784-9.915 98.999 4.221l101.624 46.021c17.104 7.746 24.725 27.852 17.048 44.979-7.628 17.017-27.523 24.75-44.651 17.355z" fill="#feccc4"/></g></g><g><path d="m274.683 92.474-23.568-56.893-55.319-35.581v95.962l41.936 17.356 35.664-17.356z" fill="#edf5ff"/><path d="m195.796 95.962v95.961l55.319-35.581 22.281-60.38z" fill="#d6e8fd"/><path d="m124.078 80.955v-24.979h-30.014v24.979h-24.978v15.007l41.687 10.724 38.284-10.724v-15.007z" fill="#f69"/><path d="m69.086 110.969h24.978v24.978h30.014v-24.978h24.979v-15.007h-79.971z" fill="#f37"/></g><path d="m323.831 35.581h-72.716v60.381l37.78 13.567 34.936-13.567z" fill="#8ee5c7"/><path d="m251.115 95.962h72.716v60.381h-72.716z" fill="#69caaa"/><g><path d="m409.429 220.353s-16.349 21.298-22.798 31.474c-12.871 20.306-14.359 29.59-14.359 34.807 0 20.489 16.669 37.157 37.157 37.157l9.126-44.647z" fill="#80eaff"/><path d="m446.587 286.634c0-5.217-1.488-14.502-14.36-34.807-6.448-10.173-22.79-31.464-22.798-31.474v103.438c20.489 0 37.158-16.668 37.158-37.157z" fill="#4de1ff"/></g></g></svg>