<svg id="Capa_1" enable-background="new 0 0 512 512" height="512" viewBox="0 0 512 512" width="512" xmlns="http://www.w3.org/2000/svg"><g><g><path d="m54.341 218.568v278.026h201.659l22.201-248.521-22.201-226.863z" fill="#edf5ff"/><path d="m458.216 218.568-200.492-199.045-1.724 1.687v475.384h202.216z" fill="#d6e8fd"/></g><g><g><path d="m61.091 201.729v-161.636h84.629v87.061z" fill="#e62e6b"/></g></g><g><path d="m.027 256.279 21.19 21.19 234.783-235.088 10.971-15.592-10.971-26.789z" fill="#f37"/><path d="m511.973 255.667-255.973-255.667v42.381l234.783 234.476z" fill="#cc295f"/><path d="m160.211 468.345v27.004l95.789.656 18.898-47.785-18.898-76.113c-52.86.246-95.789 43.321-95.789 96.238z" fill="#5d6898"/></g><g><path d="m296.696 107.457c0 59.252 48.205 107.457 107.457 107.457l29.277-100.271-29.277-114.643c-59.252 0-107.457 48.205-107.457 107.457z" fill="#8ee5c7"/><path d="m404.153 0v214.914c59.252 0 107.457-48.205 107.457-107.457s-48.205-107.457-107.457-107.457z" fill="#69caaa"/></g><g><path d="m394.586 107.362-23.057-23.056-21.19 21.19 44.247 44.247 9.567-9.568 8.139-26.854-8.139-15.526z" fill="#fff7ce"/></g><path d="m436.777 65.171-32.624 32.624v42.38l53.814-53.814z" fill="#ffe5b6"/><path d="m352.697 496.668v-28.323c0-53.069-43.175-96.243-96.243-96.243-.152 0-.302.005-.454.006v123.898z" fill="#414c7f"/><path d="m256 290.334c-26.411 0-47.897 21.487-47.897 47.897s21.486 47.897 47.897 47.897l16.256-41.615z" fill="#fee1dc"/><path d="m303.897 338.231c0-26.411-21.487-47.897-47.897-47.897v95.794c26.411 0 47.897-21.486 47.897-47.897z" fill="#febfb5"/><g><path d="m0 482v30h256l10.311-14.239-10.311-15.761z" fill="#8ee5c7"/><path d="m256 482h256v30h-256z" fill="#69caaa"/></g></g></svg>