<svg id="Capa_1" enable-background="new 0 0 511.914 511.914" height="512" viewBox="0 0 511.914 511.914" width="512" xmlns="http://www.w3.org/2000/svg"><g><g><g><g><g><path d="m379.944 384.108-21.616-20.763 101.177-105.318c14.436-15.533 22.385-35.761 22.385-56.97v-85.993c0-9.141-7.437-16.579-16.578-16.579s-16.579 7.437-16.579 16.579v52.761l-34.317 39.151-3.813 4.45-33.63-8.736 41.734-46.141v-41.484c0-25.697 20.907-46.604 46.604-46.604s46.603 20.906 46.603 46.604v85.993c0 28.869-10.838 56.399-30.518 77.52l-.157.166z" fill="#d6e8fd"/></g></g><g><g><path d="m134.248 386.747-103.73-108.324c-19.68-21.121-30.518-48.651-30.518-77.519v-85.993c0-25.697 20.906-46.604 46.603-46.604s46.604 20.906 46.604 46.604v41.484l42.905 47.312-34.801 7.565-3.89-4.448-34.239-39.152v-52.761c0-9.141-7.438-16.579-16.579-16.579s-16.578 7.437-16.578 16.579v85.993c0 21.216 7.953 41.449 22.398 56.985l103.464 108.163z" fill="#edf5ff"/></g></g></g></g><g><path d="m108.15 342.946c22.876 58.655 79.81 100.44 146.256 100.658.503.001 1.005.002 1.507.002l19.368-42.457-19.368-59.432c-49.757.394-99.533 16.81-147.763 1.229z" fill="#8ee5c7"/><path d="m156.775 180.755c-16.839 8.716-32.745 16.949-49.209 22.585l-10.15 3.475v75.141c51.472-16.961 104.985-1.027 158.497-1.027l20.689-72-20.689-60.252c-36.217-.508-68.2 16.064-99.138 32.078z" fill="#8ee5c7"/><path d="m414.411 281.956v-74.977l-9.945-3.566c-20.447-7.332-38.634-16.269-56.221-24.912-30.681-15.076-59.66-29.317-92.097-29.823-.078-.001-.156.001-.235 0v132.252c53.513 0 107.026-15.934 158.498 1.026z" fill="#69caaa"/></g><path d="m255.92 443.607c.5 0 .999-.001 1.496-.002 66.406-.218 123.312-41.949 146.217-100.545-47.682 15.706-96.918-1.418-146.187-1.359-.511.001-1.022.013-1.533.017v101.889z" fill="#69caaa"/><g><path d="m97.416 281.956v3.764c0 20.165 3.808 39.467 10.734 57.225 48.23 15.582 98.006 23.542 147.763 23.644l25.313-49.99-25.313-60.084c-53.512.001-107.025 8.481-158.497 25.441z" fill="#69caaa"/><path d="m255.914 256.516v110.074c49.781.102 99.543-7.662 147.72-23.53 6.954-17.789 10.777-37.13 10.777-57.339v-3.764c-51.472-16.961-104.985-25.441-158.497-25.441z" fill="#4db290"/></g></g></svg>