<?xml version="1.0" encoding="UTF-8" standalone="no"?><!-- Generator: Gravit.io --><svg xmlns="http://www.w3.org/2000/svg" xmlns:xlink="http://www.w3.org/1999/xlink" style="isolation:isolate" viewBox="0 0 482.891 190.673" width="482.891pt" height="190.673pt"><path d=" M 118.35 90.89 L 118.35 103.58 L 108.962 103.58 L 108.962 64.93 L 126.346 64.93 L 126.346 64.93 Q 133.3 64.93 137.096 68.059 L 137.096 68.059 L 137.096 68.059 Q 140.891 71.188 140.891 77.504 L 140.891 77.504 L 140.891 77.504 Q 140.891 83.936 137.038 87.413 L 137.038 87.413 L 137.038 87.413 Q 133.184 90.89 126.346 90.89 L 126.346 90.89 L 118.35 90.89 L 118.35 90.89 Z  M 118.35 83.646 L 125.187 83.646 L 125.187 83.646 Q 128.027 83.646 129.389 82.169 L 129.389 82.169 L 129.389 82.169 Q 130.75 80.691 130.75 78.141 L 130.75 78.141 L 130.75 78.141 Q 130.75 72.231 125.187 72.231 L 125.187 72.231 L 118.35 72.231 L 118.35 83.646 L 118.35 83.646 Z  M 147.439 103.58 L 147.439 64.93 L 173.921 64.93 L 173.921 72.173 L 156.826 72.173 L 156.826 80.575 L 171.661 80.575 L 171.661 87.876 L 156.826 87.876 L 156.826 96.337 L 173.921 96.337 L 173.921 103.58 L 147.439 103.58 L 147.439 103.58 Z  M 216.57 103.58 L 204.633 103.58 L 196.984 90.252 L 191.189 90.252 L 191.189 103.58 L 181.802 103.58 L 181.802 64.93 L 200.634 64.93 L 200.634 64.93 Q 207.298 64.93 210.949 68.001 L 210.949 68.001 L 210.949 68.001 Q 214.6 71.072 214.6 77.156 L 214.6 77.156 L 214.6 77.156 Q 214.6 80.923 212.513 84.139 L 212.513 84.139 L 212.513 84.139 Q 210.427 87.355 206.719 88.456 L 206.719 88.456 L 216.57 103.58 L 216.57 103.58 Z  M 199.07 83.357 L 199.07 83.357 Q 204.459 83.357 204.459 77.62 L 204.459 77.62 L 204.459 77.62 Q 204.459 74.954 203.184 73.564 L 203.184 73.564 L 203.184 73.564 Q 201.909 72.173 199.475 72.173 L 199.475 72.173 L 191.189 72.173 L 191.189 83.357 L 199.07 83.357 L 199.07 83.357 Z  M 222.886 103.58 L 222.886 64.93 L 249.368 64.93 L 249.368 72.173 L 232.273 72.173 L 232.273 80.575 L 247.108 80.575 L 247.108 87.876 L 232.273 87.876 L 232.273 96.337 L 249.368 96.337 L 249.368 103.58 L 222.886 103.58 L 222.886 103.58 Z  M 257.248 103.58 L 257.248 64.93 L 266.636 64.93 L 266.636 103.58 L 257.248 103.58 L 257.248 103.58 Z  M 309.632 103.58 L 297.695 103.58 L 290.046 90.252 L 284.252 90.252 L 284.252 103.58 L 274.864 103.58 L 274.864 64.93 L 293.697 64.93 L 293.697 64.93 Q 300.361 64.93 304.012 68.001 L 304.012 68.001 L 304.012 68.001 Q 307.662 71.072 307.662 77.156 L 307.662 77.156 L 307.662 77.156 Q 307.662 80.923 305.576 84.139 L 305.576 84.139 L 305.576 84.139 Q 303.49 87.355 299.781 88.456 L 299.781 88.456 L 309.632 103.58 L 309.632 103.58 Z  M 292.132 83.357 L 292.132 83.357 Q 297.522 83.357 297.522 77.62 L 297.522 77.62 L 297.522 77.62 Q 297.522 74.954 296.247 73.564 L 296.247 73.564 L 296.247 73.564 Q 294.972 72.173 292.538 72.173 L 292.538 72.173 L 284.252 72.173 L 284.252 83.357 L 292.132 83.357 L 292.132 83.357 Z  M 341.503 103.58 L 338.664 95.236 L 324.235 95.236 L 321.454 103.58 L 312.588 103.58 L 327.19 64.93 L 337.447 64.93 L 351.122 103.58 L 341.503 103.58 L 341.503 103.58 Z  M 326.553 88.34 L 336.346 88.34 L 331.42 73.737 L 326.553 88.34 L 326.553 88.34 Z  M 156.421 17.268 L 165.75 17.268 L 165.75 55.919 L 156.363 55.919 L 156.363 29.785 L 145.005 44.909 L 133.937 29.843 L 133.937 55.919 L 124.956 55.919 L 124.956 17.268 L 134.517 17.268 L 145.353 32.334 L 156.421 17.268 L 156.421 17.268 Z  M 173.979 55.919 L 173.979 17.268 L 183.366 17.268 L 183.366 55.919 L 173.979 55.919 L 173.979 55.919 Z  M 208.805 56.73 L 208.805 56.73 Q 199.823 56.73 194.898 51.862 L 194.898 51.862 L 194.898 51.862 Q 189.972 46.995 189.972 36.622 L 189.972 36.622 L 189.972 36.622 Q 189.972 26.366 194.956 21.382 L 194.956 21.382 L 194.956 21.382 Q 199.939 16.399 208.805 16.399 L 208.805 16.399 L 208.805 16.399 Q 215.816 16.399 222.596 19.238 L 222.596 19.238 L 222.596 27.757 L 222.596 27.757 Q 218.656 25.67 215.787 24.685 L 215.787 24.685 L 215.787 24.685 Q 212.919 23.7 209.964 23.7 L 209.964 23.7 L 209.964 23.7 Q 204.691 23.7 202.112 26.627 L 202.112 26.627 L 202.112 26.627 Q 199.533 29.553 199.533 36.564 L 199.533 36.564 L 199.533 36.564 Q 199.533 43.46 202.141 46.444 L 202.141 46.444 L 202.141 46.444 Q 204.749 49.429 209.558 49.429 L 209.558 49.429 L 209.558 49.429 Q 212.977 49.429 214.889 48.502 L 214.889 48.502 L 214.889 41.664 L 208.515 41.664 L 208.515 34.363 L 224.277 34.363 L 224.277 52.558 L 224.277 52.558 Q 216.744 56.73 208.805 56.73 L 208.805 56.73 L 208.805 56.73 Z  M 250.295 57.136 L 250.295 57.136 Q 241.313 57.136 236.909 53.311 L 236.909 53.311 L 236.909 53.311 Q 232.505 49.487 232.505 41.49 L 232.505 41.49 L 232.505 17.268 L 242.298 17.268 L 242.298 41.084 L 242.298 41.084 Q 242.298 45.546 244.094 47.69 L 244.094 47.69 L 244.094 47.69 Q 245.891 49.834 249.831 49.834 L 249.831 49.834 L 249.831 49.834 Q 253.482 49.834 255.452 47.632 L 255.452 47.632 L 255.452 47.632 Q 257.422 45.43 257.422 41.084 L 257.422 41.084 L 257.422 17.268 L 266.346 17.268 L 266.346 41.49 L 266.346 41.49 Q 266.346 49.313 262.029 53.224 L 262.029 53.224 L 262.029 53.224 Q 257.712 57.136 250.295 57.136 L 250.295 57.136 L 250.295 57.136 Z  M 274.575 55.919 L 274.575 17.268 L 301.056 17.268 L 301.056 24.512 L 283.962 24.512 L 283.962 32.914 L 298.796 32.914 L 298.796 40.215 L 283.962 40.215 L 283.962 48.675 L 301.056 48.675 L 301.056 55.919 L 274.575 55.919 L 274.575 55.919 Z  M 308.937 55.919 L 308.937 17.268 L 318.324 17.268 L 318.324 48.56 L 335.129 48.56 L 335.129 55.919 L 308.937 55.919 L 308.937 55.919 Z " fill="rgb(255,255,255)"/><path d=" M 382.746 156.832 L 389.39 156.793 L 379.308 182.56 L 372.624 182.56 L 363.005 156.793 L 370.229 156.793 L 376.487 175.607 L 382.746 156.832 L 382.746 156.832 Z  M 392.635 182.56 L 392.635 156.793 L 398.894 156.793 L 398.894 182.56 L 392.635 182.56 L 392.635 182.56 Z  M 394.49 154.784 L 395.88 150.419 L 401.907 150.419 L 397.348 154.784 L 394.49 154.784 L 394.49 154.784 Z  M 427.558 182.56 L 419.6 182.56 L 414.501 173.675 L 410.638 173.675 L 410.638 182.56 L 404.379 182.56 L 404.379 156.793 L 416.934 156.793 L 416.934 156.793 Q 421.377 156.793 423.811 158.841 L 423.811 158.841 L 423.811 158.841 Q 426.245 160.888 426.245 164.944 L 426.245 164.944 L 426.245 164.944 Q 426.245 167.455 424.854 169.599 L 424.854 169.599 L 424.854 169.599 Q 423.463 171.743 420.991 172.477 L 420.991 172.477 L 427.558 182.56 L 427.558 182.56 Z  M 415.891 169.078 L 415.891 169.078 Q 419.484 169.078 419.484 165.253 L 419.484 165.253 L 419.484 165.253 Q 419.484 163.476 418.634 162.549 L 418.634 162.549 L 418.634 162.549 Q 417.784 161.622 416.162 161.622 L 416.162 161.622 L 410.638 161.622 L 410.638 169.078 L 415.891 169.078 L 415.891 169.078 Z  M 443.629 183.371 L 443.629 183.371 Q 437.641 183.371 434.705 180.822 L 434.705 180.822 L 434.705 180.822 Q 431.769 178.272 431.769 172.941 L 431.769 172.941 L 431.769 156.793 L 438.297 156.793 L 438.297 172.671 L 438.297 172.671 Q 438.297 175.645 439.495 177.075 L 439.495 177.075 L 439.495 177.075 Q 440.693 178.504 443.32 178.504 L 443.32 178.504 L 443.32 178.504 Q 445.753 178.504 447.067 177.036 L 447.067 177.036 L 447.067 177.036 Q 448.38 175.568 448.38 172.671 L 448.38 172.671 L 448.38 156.793 L 454.329 156.793 L 454.329 172.941 L 454.329 172.941 Q 454.329 178.156 451.451 180.764 L 451.451 180.764 L 451.451 180.764 Q 448.573 183.371 443.629 183.371 L 443.629 183.371 L 443.629 183.371 Z  M 468.469 183.101 L 468.469 183.101 Q 465.533 183.101 463.369 182.695 L 463.369 182.695 L 463.369 182.695 Q 461.206 182.29 459.352 181.324 L 459.352 181.324 L 459.352 175.375 L 459.352 175.375 Q 461.09 176.766 463.311 177.519 L 463.311 177.519 L 463.311 177.519 Q 465.533 178.272 467.657 178.272 L 467.657 178.272 L 467.657 178.272 Q 471.289 178.272 471.289 175.529 L 471.289 175.529 L 471.289 175.529 Q 471.289 174.332 470.13 173.656 L 470.13 173.656 L 470.13 173.656 Q 468.971 172.98 466.382 172.13 L 466.382 172.13 L 466.382 172.13 Q 465.185 171.743 464.914 171.628 L 464.914 171.628 L 464.914 171.628 Q 462.133 170.7 460.53 169.117 L 460.53 169.117 L 460.53 169.117 Q 458.927 167.533 458.927 164.404 L 458.927 164.404 L 458.927 164.404 Q 458.927 162.202 460.008 160.328 L 460.008 160.328 L 460.008 160.328 Q 461.09 158.454 463.331 157.334 L 463.331 157.334 L 463.331 157.334 Q 465.571 156.214 468.855 156.214 L 468.855 156.214 L 468.855 156.214 Q 471.134 156.214 472.776 156.619 L 472.776 156.619 L 472.776 156.619 Q 474.418 157.025 476.272 157.913 L 476.272 157.913 L 476.272 163.901 L 476.272 163.901 Q 474.65 162.665 472.795 161.854 L 472.795 161.854 L 472.795 161.854 Q 470.941 161.043 469.048 161.043 L 469.048 161.043 L 469.048 161.043 Q 467.348 161.043 466.324 161.719 L 466.324 161.719 L 466.324 161.719 Q 465.301 162.395 465.301 163.67 L 465.301 163.67 L 465.301 163.67 Q 465.301 164.674 465.919 165.311 L 465.919 165.311 L 465.919 165.311 Q 466.537 165.949 467.445 166.296 L 467.445 166.296 L 467.445 166.296 Q 468.353 166.644 470.361 167.262 L 470.361 167.262 L 470.361 167.262 Q 472.757 167.958 474.302 168.808 L 474.302 168.808 L 474.302 168.808 Q 475.847 169.657 476.774 171.087 L 476.774 171.087 L 476.774 171.087 Q 477.701 172.516 477.701 174.757 L 477.701 174.757 L 477.701 174.757 Q 477.701 177.113 476.62 179.006 L 476.62 179.006 L 476.62 179.006 Q 475.538 180.899 473.433 182 L 473.433 182 L 473.433 182 Q 471.327 183.101 468.469 183.101 L 468.469 183.101 L 468.469 183.101 Z  M 221.473 183.062 L 221.473 183.062 Q 208.802 183.062 208.802 169.696 L 208.802 169.696 L 208.802 169.696 Q 208.802 156.214 221.473 156.214 L 221.473 156.214 L 221.473 156.214 Q 225.375 156.214 229.663 158.107 L 229.663 158.107 L 229.663 163.554 L 229.663 163.554 Q 225.954 161.081 222.323 161.081 L 222.323 161.081 L 222.323 161.081 Q 218.769 161.081 217.011 163.071 L 217.011 163.071 L 217.011 163.071 Q 215.253 165.06 215.253 169.696 L 215.253 169.696 L 215.253 169.696 Q 215.253 174.332 217.05 176.263 L 217.05 176.263 L 217.05 176.263 Q 218.846 178.195 222.593 178.195 L 222.593 178.195 L 222.593 178.195 Q 224.139 178.195 225.954 177.615 L 225.954 177.615 L 225.954 177.615 Q 227.77 177.036 229.663 175.8 L 229.663 175.8 L 229.663 181.247 L 229.663 181.247 Q 228.079 182.058 225.8 182.56 L 225.8 182.56 L 225.8 182.56 Q 223.521 183.062 221.473 183.062 L 221.473 183.062 L 221.473 183.062 Z  M 245.888 183.101 L 245.888 183.101 Q 239.977 183.101 236.655 179.74 L 236.655 179.74 L 236.655 179.74 Q 233.333 176.379 233.333 169.696 L 233.333 169.696 L 233.333 169.696 Q 233.333 163.129 236.597 159.71 L 236.597 159.71 L 236.597 159.71 Q 239.862 156.291 245.888 156.291 L 245.888 156.291 L 245.888 156.291 Q 251.799 156.291 255.14 159.633 L 255.14 159.633 L 255.14 159.633 Q 258.482 162.974 258.482 169.657 L 258.482 169.657 L 258.482 169.657 Q 258.482 176.225 255.217 179.663 L 255.217 179.663 L 255.217 179.663 Q 251.953 183.101 245.888 183.101 L 245.888 183.101 L 245.888 183.101 Z  M 245.888 177.963 L 245.888 177.963 Q 248.94 177.963 250.485 176.032 L 250.485 176.032 L 250.485 176.032 Q 252.03 174.1 252.03 169.657 L 252.03 169.657 L 252.03 169.657 Q 252.03 165.215 250.504 163.303 L 250.504 163.303 L 250.504 163.303 Q 248.979 161.39 245.888 161.39 L 245.888 161.39 L 245.888 161.39 Q 242.836 161.39 241.31 163.322 L 241.31 163.322 L 241.31 163.322 Q 239.784 165.253 239.784 169.735 L 239.784 169.735 L 239.784 169.735 Q 239.784 174.139 241.31 176.051 L 241.31 176.051 L 241.31 176.051 Q 242.836 177.963 245.888 177.963 L 245.888 177.963 L 245.888 177.963 Z  M 286.065 182.56 L 278.106 182.56 L 273.007 173.675 L 269.144 173.675 L 269.144 182.56 L 262.886 182.56 L 262.886 156.793 L 275.441 156.793 L 275.441 156.793 Q 279.884 156.793 282.317 158.841 L 282.317 158.841 L 282.317 158.841 Q 284.751 160.888 284.751 164.944 L 284.751 164.944 L 284.751 164.944 Q 284.751 167.455 283.36 169.599 L 283.36 169.599 L 283.36 169.599 Q 281.97 171.743 279.497 172.477 L 279.497 172.477 L 286.065 182.56 L 286.065 182.56 Z  M 274.398 169.078 L 274.398 169.078 Q 277.991 169.078 277.991 165.253 L 277.991 165.253 L 277.991 165.253 Q 277.991 163.476 277.141 162.549 L 277.141 162.549 L 277.141 162.549 Q 276.291 161.622 274.668 161.622 L 274.668 161.622 L 269.144 161.622 L 269.144 169.078 L 274.398 169.078 L 274.398 169.078 Z  M 300.629 183.101 L 300.629 183.101 Q 294.718 183.101 291.396 179.74 L 291.396 179.74 L 291.396 179.74 Q 288.073 176.379 288.073 169.696 L 288.073 169.696 L 288.073 169.696 Q 288.073 163.129 291.338 159.71 L 291.338 159.71 L 291.338 159.71 Q 294.602 156.291 300.629 156.291 L 300.629 156.291 L 300.629 156.291 Q 306.539 156.291 309.881 159.633 L 309.881 159.633 L 309.881 159.633 Q 313.222 162.974 313.222 169.657 L 313.222 169.657 L 313.222 169.657 Q 313.222 176.225 309.958 179.663 L 309.958 179.663 L 309.958 179.663 Q 306.694 183.101 300.629 183.101 L 300.629 183.101 L 300.629 183.101 Z  M 300.629 177.963 L 300.629 177.963 Q 303.68 177.963 305.226 176.032 L 305.226 176.032 L 305.226 176.032 Q 306.771 174.1 306.771 169.657 L 306.771 169.657 L 306.771 169.657 Q 306.771 165.215 305.245 163.303 L 305.245 163.303 L 305.245 163.303 Q 303.719 161.39 300.629 161.39 L 300.629 161.39 L 300.629 161.39 Q 297.577 161.39 296.051 163.322 L 296.051 163.322 L 296.051 163.322 Q 294.525 165.253 294.525 169.735 L 294.525 169.735 L 294.525 169.735 Q 294.525 174.139 296.051 176.051 L 296.051 176.051 L 296.051 176.051 Q 297.577 177.963 300.629 177.963 L 300.629 177.963 L 300.629 177.963 Z  M 334.354 156.793 L 340.11 156.793 L 340.11 182.56 L 335.397 182.56 L 323.382 166.876 L 323.382 182.56 L 317.626 182.56 L 317.626 156.793 L 322.957 156.793 L 334.354 172.13 L 334.354 156.793 L 334.354 156.793 Z  M 362.632 182.56 L 360.739 176.997 L 351.12 176.997 L 349.265 182.56 L 343.355 182.56 L 353.09 156.793 L 359.928 156.793 L 369.045 182.56 L 362.632 182.56 L 362.632 182.56 Z  M 352.665 172.4 L 359.194 172.4 L 355.91 162.665 L 352.665 172.4 L 352.665 172.4 Z  M 182.417 183.101 L 182.417 183.101 Q 176.506 183.101 173.184 179.74 L 173.184 179.74 L 173.184 179.74 Q 169.862 176.379 169.862 169.696 L 169.862 169.696 L 169.862 169.696 Q 169.862 163.129 173.126 159.71 L 173.126 159.71 L 173.126 159.71 Q 176.39 156.291 182.417 156.291 L 182.417 156.291 L 182.417 156.291 Q 188.327 156.291 191.669 159.633 L 191.669 159.633 L 191.669 159.633 Q 195.011 162.974 195.011 169.657 L 195.011 169.657 L 195.011 169.657 Q 195.011 176.225 191.746 179.663 L 191.746 179.663 L 191.746 179.663 Q 188.482 183.101 182.417 183.101 L 182.417 183.101 L 182.417 183.101 Z  M 182.417 177.963 L 182.417 177.963 Q 185.469 177.963 187.014 176.032 L 187.014 176.032 L 187.014 176.032 Q 188.559 174.1 188.559 169.657 L 188.559 169.657 L 188.559 169.657 Q 188.559 165.215 187.033 163.303 L 187.033 163.303 L 187.033 163.303 Q 185.507 161.39 182.417 161.39 L 182.417 161.39 L 182.417 161.39 Q 179.365 161.39 177.839 163.322 L 177.839 163.322 L 177.839 163.322 Q 176.313 165.253 176.313 169.735 L 176.313 169.735 L 176.313 169.735 Q 176.313 174.139 177.839 176.051 L 177.839 176.051 L 177.839 176.051 Q 179.365 177.963 182.417 177.963 L 182.417 177.963 L 182.417 177.963 Z  M 14.139 183.062 L 14.139 183.062 Q 1.468 183.062 1.468 169.696 L 1.468 169.696 L 1.468 169.696 Q 1.468 156.214 14.139 156.214 L 14.139 156.214 L 14.139 156.214 Q 18.041 156.214 22.329 158.107 L 22.329 158.107 L 22.329 163.554 L 22.329 163.554 Q 18.62 161.081 14.989 161.081 L 14.989 161.081 L 14.989 161.081 Q 11.435 161.081 9.677 163.071 L 9.677 163.071 L 9.677 163.071 Q 7.919 165.06 7.919 169.696 L 7.919 169.696 L 7.919 169.696 Q 7.919 174.332 9.716 176.263 L 9.716 176.263 L 9.716 176.263 Q 11.512 178.195 15.259 178.195 L 15.259 178.195 L 15.259 178.195 Q 16.805 178.195 18.62 177.615 L 18.62 177.615 L 18.62 177.615 Q 20.436 177.036 22.329 175.8 L 22.329 175.8 L 22.329 181.247 L 22.329 181.247 Q 20.745 182.058 18.466 182.56 L 18.466 182.56 L 18.466 182.56 Q 16.187 183.062 14.139 183.062 L 14.139 183.062 L 14.139 183.062 Z  M 38.554 183.101 L 38.554 183.101 Q 32.643 183.101 29.321 179.74 L 29.321 179.74 L 29.321 179.74 Q 25.999 176.379 25.999 169.696 L 25.999 169.696 L 25.999 169.696 Q 25.999 163.129 29.263 159.71 L 29.263 159.71 L 29.263 159.71 Q 32.528 156.291 38.554 156.291 L 38.554 156.291 L 38.554 156.291 Q 44.465 156.291 47.806 159.633 L 47.806 159.633 L 47.806 159.633 Q 51.148 162.974 51.148 169.657 L 51.148 169.657 L 51.148 169.657 Q 51.148 176.225 47.883 179.663 L 47.883 179.663 L 47.883 179.663 Q 44.619 183.101 38.554 183.101 L 38.554 183.101 L 38.554 183.101 Z  M 38.554 177.963 L 38.554 177.963 Q 41.606 177.963 43.151 176.032 L 43.151 176.032 L 43.151 176.032 Q 44.696 174.1 44.696 169.657 L 44.696 169.657 L 44.696 169.657 Q 44.696 165.215 43.17 163.303 L 43.17 163.303 L 43.17 163.303 Q 41.645 161.39 38.554 161.39 L 38.554 161.39 L 38.554 161.39 Q 35.502 161.39 33.976 163.322 L 33.976 163.322 L 33.976 163.322 Q 32.45 165.253 32.45 169.735 L 32.45 169.735 L 32.45 169.735 Q 32.45 174.139 33.976 176.051 L 33.976 176.051 L 33.976 176.051 Q 35.502 177.963 38.554 177.963 L 38.554 177.963 L 38.554 177.963 Z  M 72.279 156.793 L 78.035 156.793 L 78.035 182.56 L 73.322 182.56 L 61.308 166.876 L 61.308 182.56 L 55.552 182.56 L 55.552 156.793 L 60.883 156.793 L 72.279 172.13 L 72.279 156.793 L 72.279 156.793 Z  M 88.929 182.56 L 88.929 161.622 L 81.705 161.622 L 81.705 156.793 L 102.527 156.793 L 102.527 161.622 L 95.187 161.622 L 95.187 182.56 L 88.929 182.56 L 88.929 182.56 Z  M 129.376 182.56 L 121.418 182.56 L 116.319 173.675 L 112.456 173.675 L 112.456 182.56 L 106.197 182.56 L 106.197 156.793 L 118.753 156.793 L 118.753 156.793 Q 123.195 156.793 125.629 158.841 L 125.629 158.841 L 125.629 158.841 Q 128.063 160.888 128.063 164.944 L 128.063 164.944 L 128.063 164.944 Q 128.063 167.455 126.672 169.599 L 126.672 169.599 L 126.672 169.599 Q 125.281 171.743 122.809 172.477 L 122.809 172.477 L 129.376 182.56 L 129.376 182.56 Z  M 117.709 169.078 L 117.709 169.078 Q 121.302 169.078 121.302 165.253 L 121.302 165.253 L 121.302 165.253 Q 121.302 163.476 120.452 162.549 L 120.452 162.549 L 120.452 162.549 Q 119.602 161.622 117.98 161.622 L 117.98 161.622 L 112.456 161.622 L 112.456 169.078 L 117.709 169.078 L 117.709 169.078 Z  M 150.623 182.56 L 148.73 176.997 L 139.111 176.997 L 137.257 182.56 L 131.346 182.56 L 141.081 156.793 L 147.919 156.793 L 157.036 182.56 L 150.623 182.56 L 150.623 182.56 Z  M 140.656 172.4 L 147.185 172.4 L 143.901 162.665 L 140.656 172.4 L 140.656 172.4 Z " fill="rgb(255,255,255)"/><path d=" M 324.979 158.944 L 324.979 158.944 L 324.979 158.944 Q 324.883 159.117 324.786 159.195 L 324.786 159.195 L 324.786 159.195 Q 324.689 159.272 323.994 159.658 L 323.994 159.658 L 323.994 159.658 Q 323.299 160.045 322.738 160.045 L 322.738 160.045 L 322.738 160.045 Q 322.178 160.045 322.178 159.774 L 322.178 159.774 L 322.178 159.774 Q 322.178 159.658 322.256 159.465 L 322.256 159.465 L 322.256 159.465 Q 322.951 158.152 329.402 141.656 L 329.402 141.656 L 329.402 141.656 Q 328.205 141.811 327.625 141.811 L 327.625 141.811 L 327.625 141.811 Q 327.046 141.811 326.718 141.56 L 326.718 141.56 L 326.718 141.56 Q 326.389 141.308 326.389 140.903 L 326.389 140.903 L 326.389 140.903 Q 326.389 140.497 327.258 140.169 L 327.258 140.169 L 327.258 140.169 Q 328.128 139.84 328.591 139.84 L 328.591 139.84 L 328.591 139.84 Q 329.055 139.84 329.364 140.15 L 329.364 140.15 L 329.364 140.15 Q 329.673 140.459 329.789 140.459 L 329.789 140.459 L 329.905 140.459 L 331.025 137.6 L 331.025 137.6 Q 331.72 135.668 333.15 132.558 L 333.15 132.558 L 333.15 132.558 Q 334.579 129.449 335.738 127.594 L 335.738 127.594 L 335.738 127.594 Q 338.326 123.693 340.915 123.693 L 340.915 123.693 L 341.842 123.809 L 342.614 124.079 L 342.614 124.079 Q 343.735 124.736 343.735 125.875 L 343.735 125.875 L 343.735 125.875 Q 343.735 127.015 343.116 128.328 L 343.116 128.328 L 343.116 128.328 Q 342.073 130.569 338.867 134.162 L 338.867 134.162 L 338.867 134.162 Q 335.661 137.754 332.686 140.15 L 332.686 140.15 L 332.686 140.15 Q 335.854 139.879 336.762 139.879 L 336.762 139.879 L 336.762 139.879 Q 337.669 139.879 337.708 140.111 L 337.708 140.111 L 337.708 140.111 Q 337.708 140.265 336.974 140.478 L 336.974 140.478 L 336.974 140.478 Q 336.24 140.69 331.025 141.463 L 331.025 141.463 L 331.025 141.463 Q 326.428 153.13 326.351 154.829 L 326.351 154.829 L 326.351 154.829 Q 326.312 155.679 326.177 156.046 L 326.177 156.046 L 326.177 156.046 Q 326.041 156.413 325.848 156.896 L 325.848 156.896 L 325.848 156.896 Q 325.655 157.379 325.559 157.63 L 325.559 157.63 L 325.559 157.63 Q 325.462 157.881 325.346 158.19 L 325.346 158.19 L 325.346 158.19 Q 325.23 158.499 325.153 158.635 L 325.153 158.635 L 325.153 158.635 Q 325.076 158.77 324.979 158.944 Z  M 342.035 127.788 L 342.035 127.788 L 342.035 127.788 Q 342.692 126.667 342.692 125.663 L 342.692 125.663 L 342.692 125.663 Q 342.692 124.658 341.958 124.658 L 341.958 124.658 L 341.958 124.658 Q 340.49 124.658 337.785 128.444 L 337.785 128.444 L 337.785 128.444 Q 336.201 130.685 334.965 132.887 L 334.965 132.887 L 334.965 132.887 Q 332.493 137.523 331.798 139.647 L 331.798 139.647 L 331.488 140.265 L 331.488 140.265 Q 334.193 138.257 337.245 134.548 L 337.245 134.548 L 337.245 134.548 Q 340.296 130.839 342.035 127.788 Z  M 345.859 142.158 L 345.859 142.158 L 345.859 142.158 Q 346.555 140.729 346.555 139.956 L 346.555 139.956 L 346.555 139.956 Q 346.555 139.184 346.381 138.739 L 346.381 138.739 L 346.381 138.739 Q 346.207 138.295 346.535 137.986 L 346.535 137.986 L 346.535 137.986 Q 346.864 137.677 347.366 137.754 L 347.366 137.754 L 347.366 137.754 Q 348.139 137.948 348.139 139.493 L 348.139 139.493 L 348.139 139.493 Q 348.139 141.038 346.323 143.549 L 346.323 143.549 L 346.323 143.549 Q 346.362 144.592 347.405 144.592 L 347.405 144.592 L 347.405 144.592 Q 348.448 144.592 350.572 142.352 L 350.572 142.352 L 350.572 142.352 Q 351.577 141.193 351.828 140.845 L 351.828 140.845 L 351.828 140.845 Q 352.079 140.497 352.272 140.594 L 352.272 140.594 L 352.272 140.594 Q 352.465 140.69 352.465 140.768 L 352.465 140.768 L 352.465 140.768 Q 352.465 141.154 351.075 142.776 L 351.075 142.776 L 351.075 142.776 Q 348.873 145.481 347.173 145.481 L 347.173 145.481 L 347.173 145.481 Q 346.052 145.481 345.589 144.515 L 345.589 144.515 L 345.589 144.515 Q 344.816 145.326 344.082 146.021 L 344.082 146.021 L 344.082 146.021 Q 342.576 147.296 340.721 147.296 L 340.721 147.296 L 340.721 147.296 Q 339.678 147.296 338.983 146.794 L 338.983 146.794 L 338.983 146.794 Q 337.631 145.983 337.631 143.897 L 337.631 143.897 L 337.631 143.897 Q 337.631 141.618 339.176 139.261 L 339.176 139.261 L 339.176 139.261 Q 340.065 137.87 341.262 136.827 L 341.262 136.827 L 341.262 136.827 Q 343.155 135.166 344.855 135.166 L 344.855 135.166 L 344.855 135.166 Q 345.28 135.166 345.666 135.282 L 345.666 135.282 L 345.666 135.282 Q 346.825 135.668 346.825 136.75 L 346.825 136.75 L 346.825 136.75 Q 346.825 137.639 346.362 137.639 L 346.362 137.639 L 346.362 137.639 Q 346.168 137.561 346.168 137.059 L 346.168 137.059 L 346.168 137.059 Q 346.168 136.364 345.396 136.364 L 345.396 136.364 L 345.396 136.364 Q 344.044 136.364 341.919 138.836 L 341.919 138.836 L 341.919 138.836 Q 339.794 141.308 339.369 143.82 L 339.369 143.82 L 339.369 143.82 Q 339.292 144.244 339.292 144.766 L 339.292 144.766 L 339.292 144.766 Q 339.292 145.287 339.64 145.964 L 339.64 145.964 L 339.64 145.964 Q 339.987 146.64 340.934 146.64 L 340.934 146.64 L 340.934 146.64 Q 341.88 146.64 343.001 145.79 L 343.001 145.79 L 343.001 145.79 Q 344.121 144.94 345.009 143.626 L 345.009 143.626 L 344.894 143.395 L 344.894 143.395 Q 344.739 142.776 345.048 142.39 L 345.048 142.39 L 345.048 142.39 Q 345.357 142.004 345.859 142.158 Z  M 356.522 147.374 L 356.522 147.374 L 356.522 147.374 Q 354.551 147.374 354.551 144.998 L 354.551 144.998 L 354.551 144.998 Q 354.551 142.622 357.951 139.145 L 357.951 139.145 L 357.951 139.145 Q 358.221 138.875 358.337 138.72 L 358.337 138.72 L 358.608 138.334 L 358.608 138.334 Q 359.148 137.6 359.11 137.407 L 359.11 137.407 L 358.994 137.059 L 358.994 137.059 Q 358.839 136.595 357.719 136.383 L 357.719 136.383 L 357.719 136.383 Q 356.599 136.171 355.903 136.171 L 355.903 136.171 L 355.903 136.171 Q 352.427 141.077 351.886 141.772 L 351.886 141.772 L 351.886 141.772 Q 351.345 142.467 351.152 142.352 L 351.152 142.352 L 351.152 142.352 Q 350.959 142.236 350.959 142.081 L 350.959 142.081 L 350.959 142.081 Q 350.959 141.927 351.19 141.618 L 351.19 141.618 L 351.19 141.618 Q 353.277 139.068 354.783 136.171 L 354.783 136.171 L 354.783 136.171 Q 354.32 136.093 354.088 135.842 L 354.088 135.842 L 354.088 135.842 Q 353.856 135.591 354.049 134.992 L 354.049 134.992 L 354.049 134.992 Q 354.242 134.393 355.227 133.389 L 355.227 133.389 L 355.227 133.389 Q 356.212 132.385 356.946 132.037 L 356.946 132.037 L 356.946 132.037 Q 357.68 131.689 357.874 131.612 L 357.874 131.612 L 357.874 131.612 Q 358.067 131.535 358.299 131.535 L 358.299 131.535 L 358.299 131.535 Q 358.762 131.535 357.99 132.925 L 357.99 132.925 L 356.483 135.321 L 356.483 135.321 Q 358.221 135.437 359.458 135.437 L 359.458 135.437 L 360.81 135.398 L 360.81 135.398 Q 361.466 135.398 361.775 135.572 L 361.775 135.572 L 361.775 135.572 Q 362.084 135.746 361.93 136.171 L 361.93 136.171 L 361.93 136.171 Q 361.659 136.905 360.578 138.141 L 360.578 138.141 L 360.578 138.141 Q 358.26 140.845 357.101 143.897 L 357.101 143.897 L 357.101 143.897 Q 356.831 144.631 356.831 145.172 L 356.831 145.172 L 356.831 145.172 Q 356.831 146.292 357.642 146.292 L 357.642 146.292 L 357.642 146.292 Q 357.912 146.292 358.666 145.867 L 358.666 145.867 L 358.666 145.867 Q 359.419 145.442 361.196 143.839 L 361.196 143.839 L 361.196 143.839 Q 362.973 142.236 364.055 140.69 L 364.055 140.69 L 364.055 140.69 Q 364.209 140.497 364.422 140.594 L 364.422 140.594 L 364.422 140.594 Q 364.634 140.69 364.634 140.787 L 364.634 140.787 L 364.634 140.787 Q 364.634 140.884 364.557 140.999 L 364.557 140.999 L 364.557 140.999 Q 363.977 142.042 362.471 143.665 L 362.471 143.665 L 362.471 143.665 Q 360.964 145.287 359.535 146.292 L 359.535 146.292 L 359.535 146.292 Q 358.144 147.374 356.522 147.374 Z  M 369.27 135.63 L 369.772 135.591 L 369.772 135.591 Q 372.747 135.321 373.384 135.321 L 373.384 135.321 L 373.384 135.321 Q 374.021 135.321 374.021 135.514 L 374.021 135.514 L 374.021 135.514 Q 374.021 135.746 373.114 135.997 L 373.114 135.997 L 373.114 135.997 Q 372.206 136.248 368.69 136.634 L 368.69 136.634 L 368.69 136.634 Q 368.497 136.982 368.227 137.445 L 368.227 137.445 L 368.227 137.445 Q 367.647 138.373 367.609 138.566 L 367.609 138.566 L 367.609 138.566 Q 365.407 142.97 365.291 144.167 L 365.291 144.167 L 365.291 144.167 Q 365.252 144.515 365.252 145.056 L 365.252 145.056 L 365.252 145.056 Q 365.252 145.597 365.561 145.944 L 365.561 145.944 L 365.561 145.944 Q 366.102 146.562 367.107 146.021 L 367.107 146.021 L 367.107 146.021 Q 368.111 145.481 369.907 143.858 L 369.907 143.858 L 369.907 143.858 Q 371.704 142.236 372.824 140.69 L 372.824 140.69 L 372.824 140.69 Q 372.978 140.497 373.21 140.613 L 373.21 140.613 L 373.21 140.613 Q 373.79 140.884 371.201 143.665 L 371.201 143.665 L 371.201 143.665 Q 368.729 146.331 367.068 146.949 L 367.068 146.949 L 367.068 146.949 Q 366.102 147.296 365.445 147.296 L 365.445 147.296 L 365.445 147.296 Q 363.9 147.296 363.398 145.828 L 363.398 145.828 L 363.398 145.828 Q 363.321 145.558 363.321 145.172 L 363.321 145.172 L 363.321 145.172 Q 363.321 143.82 364.557 141.077 L 364.557 141.077 L 364.557 141.077 Q 364.364 141.502 363.05 143.008 L 363.05 143.008 L 363.05 143.008 Q 362.703 143.395 362.509 143.008 L 362.509 143.008 L 362.509 143.008 Q 362.471 142.931 362.471 142.796 L 362.471 142.796 L 362.471 142.796 Q 362.471 142.661 362.625 142.467 L 362.625 142.467 L 362.625 142.467 Q 364.518 140.111 365.6 138.488 L 365.6 138.488 L 365.6 138.488 Q 365.6 138.45 366.45 136.866 L 366.45 136.866 L 366.45 136.866 Q 366.063 136.943 365.658 136.943 L 365.658 136.943 L 365.658 136.943 Q 365.252 136.943 365.059 136.692 L 365.059 136.692 L 365.059 136.692 Q 364.866 136.441 365.02 136.093 L 365.02 136.093 L 365.02 136.093 Q 365.291 135.475 367.068 135.398 L 367.068 135.398 L 367.068 135.398 Q 367.107 135.321 367.222 135.321 L 367.222 135.321 L 369.154 131.728 L 369.154 131.728 Q 369.308 131.419 369.502 131.091 L 369.502 131.091 L 369.502 131.091 Q 369.695 130.762 369.791 130.588 L 369.791 130.588 L 369.791 130.588 Q 369.888 130.414 370.004 130.221 L 370.004 130.221 L 370.004 130.221 Q 370.12 130.028 370.197 129.951 L 370.197 129.951 L 370.197 129.951 Q 370.274 129.874 370.352 129.796 L 370.352 129.796 L 370.352 129.796 Q 370.506 129.565 371.259 129.565 L 371.259 129.565 L 371.259 129.565 Q 372.013 129.565 372.283 129.99 L 372.283 129.99 L 372.283 129.99 Q 372.399 130.144 372.399 130.511 L 372.399 130.511 L 372.399 130.511 Q 372.399 130.878 372.129 131.322 L 372.129 131.322 L 372.129 131.322 Q 371.858 131.767 371.549 131.96 L 371.549 131.96 L 371.549 131.96 Q 371.24 132.153 371.124 132.385 L 371.124 132.385 L 369.27 135.63 L 369.27 135.63 Z  M 381.246 135.166 L 381.246 135.166 L 381.246 135.166 Q 383.332 135.166 383.332 137.175 L 383.332 137.175 L 383.332 137.175 Q 383.332 138.218 382.752 138.875 L 382.752 138.875 L 382.752 138.875 Q 381.786 140.304 379.623 141.366 L 379.623 141.366 L 379.623 141.366 Q 377.46 142.429 375.953 142.545 L 375.953 142.545 L 375.953 142.545 Q 375.412 142.583 375.374 142.236 L 375.374 142.236 L 375.374 142.236 Q 375.335 142.081 375.47 142.042 L 375.47 142.042 L 375.47 142.042 Q 375.605 142.004 375.683 142.004 L 375.683 142.004 L 375.683 142.004 Q 376.571 141.927 377.962 141.154 L 377.962 141.154 L 377.962 141.154 Q 380.55 139.763 381.748 138.295 L 381.748 138.295 L 381.748 138.295 Q 382.25 137.6 382.25 136.962 L 382.25 136.962 L 382.25 136.962 Q 382.25 136.325 381.632 136.325 L 381.632 136.325 L 381.632 136.325 Q 381.13 136.325 380.28 136.75 L 380.28 136.75 L 380.28 136.75 Q 378.464 137.6 376.455 139.705 L 376.455 139.705 L 376.455 139.705 Q 374.446 141.811 373.828 143.82 L 373.828 143.82 L 373.828 143.82 Q 373.635 144.438 373.635 145.036 L 373.635 145.036 L 373.635 145.036 Q 373.635 145.635 374.137 146.176 L 374.137 146.176 L 374.137 146.176 Q 374.64 146.717 375.683 146.717 L 375.683 146.717 L 375.683 146.717 Q 376.842 146.717 378.348 146.099 L 378.348 146.099 L 378.348 146.099 Q 382.714 144.322 385.07 140.729 L 385.07 140.729 L 385.07 140.729 Q 385.302 140.42 385.495 140.613 L 385.495 140.613 L 385.495 140.613 Q 385.65 140.69 385.65 140.806 L 385.65 140.806 L 385.65 140.806 Q 385.65 140.922 385.534 141.077 L 385.534 141.077 L 385.534 141.077 Q 384.375 143.008 382.598 144.515 L 382.598 144.515 L 382.598 144.515 Q 379.159 147.451 375.914 147.451 L 375.914 147.451 L 375.914 147.451 Q 373.133 147.451 372.013 145.79 L 372.013 145.79 L 372.013 145.79 Q 371.588 145.133 371.588 144.206 L 371.588 144.206 L 371.588 144.206 Q 371.588 143.279 372.09 142.004 L 372.09 142.004 L 372.09 142.004 Q 373.056 139.802 376.223 137.484 L 376.223 137.484 L 376.223 137.484 Q 379.391 135.166 381.246 135.166 Z  M 385.031 146.794 L 385.031 146.794 L 385.031 146.794 Q 384.529 147.374 384.819 147.721 L 384.819 147.721 L 384.819 147.721 Q 385.109 148.069 385.476 148.069 L 385.476 148.069 L 385.476 148.069 Q 385.843 148.069 386.229 147.953 L 386.229 147.953 L 386.229 147.953 Q 387.89 147.451 389.455 145.964 L 389.455 145.964 L 389.455 145.964 Q 391.019 144.476 391.019 142.931 L 391.019 142.931 L 391.019 142.931 Q 391.019 142.081 389.126 141.077 L 389.126 141.077 L 389.126 141.077 Q 388.238 140.613 388.122 140.536 L 388.122 140.536 L 388.122 140.536 Q 387.079 139.84 386.808 139.145 L 386.808 139.145 L 386.808 139.145 Q 386.268 140.072 385.07 141.811 L 385.07 141.811 L 385.07 141.811 Q 384.8 142.12 384.568 141.946 L 384.568 141.946 L 384.568 141.946 Q 384.336 141.772 384.529 141.463 L 384.529 141.463 L 384.529 141.463 Q 386.113 139.3 386.615 137.832 L 386.615 137.832 L 386.615 137.832 Q 386.886 135.707 389.706 134.007 L 389.706 134.007 L 389.706 134.007 Q 392.526 132.307 394.844 132.307 L 394.844 132.307 L 394.844 132.307 Q 396.312 132.307 396.911 132.829 L 396.911 132.829 L 396.911 132.829 Q 397.509 133.35 397.509 133.853 L 397.509 133.853 L 397.509 133.853 Q 397.509 134.355 397.22 135.012 L 397.22 135.012 L 397.22 135.012 Q 396.93 135.668 396.041 136.248 L 396.041 136.248 L 396.041 136.248 Q 395.81 136.402 395.655 136.171 L 395.655 136.171 L 395.655 136.171 Q 395.578 135.939 395.983 135.533 L 395.983 135.533 L 395.983 135.533 Q 396.389 135.127 396.505 134.432 L 396.505 134.432 L 396.505 134.432 Q 396.621 133.737 395.887 133.582 L 395.887 133.582 L 395.887 133.582 Q 395.771 133.582 395.655 133.582 L 395.655 133.582 L 395.655 133.582 Q 394.148 133.582 391.888 134.703 L 391.888 134.703 L 391.888 134.703 Q 389.629 135.823 388.354 137.6 L 388.354 137.6 L 388.354 137.6 Q 387.851 138.257 387.851 138.933 L 387.851 138.933 L 387.851 138.933 Q 387.851 139.609 388.779 140.15 L 388.779 140.15 L 388.779 140.15 Q 389.165 140.381 390.092 140.884 L 390.092 140.884 L 390.092 140.884 Q 391.019 141.386 391.406 141.618 L 391.406 141.618 L 391.406 141.618 Q 391.792 141.849 392.333 142.352 L 392.333 142.352 L 392.333 142.352 Q 392.874 142.854 392.912 143.279 L 392.912 143.279 L 392.912 143.279 Q 393.105 144.438 391.831 145.828 L 391.831 145.828 L 391.831 145.828 Q 390.015 147.837 386.422 148.648 L 386.422 148.648 L 386.422 148.648 Q 385.611 148.842 384.78 148.842 L 384.78 148.842 L 384.78 148.842 Q 383.95 148.842 383.641 148.223 L 383.641 148.223 L 383.641 148.223 Q 383.525 148.069 383.525 147.741 L 383.525 147.741 L 383.525 147.741 Q 383.525 147.412 384.143 146.678 L 384.143 146.678 L 384.143 146.678 Q 384.722 146.099 385.997 145.558 L 385.997 145.558 L 385.997 145.558 Q 386.113 145.519 386.19 145.597 L 386.19 145.597 L 386.19 145.597 Q 386.268 145.674 386.229 145.79 L 386.229 145.79 L 386.229 145.79 Q 386.19 145.906 385.823 146.06 L 385.823 146.06 L 385.823 146.06 Q 385.456 146.215 385.031 146.794 Z  M 263.034 136.364 L 263.034 136.364 L 263.034 136.364 Q 263.034 136.634 262.609 137.542 L 262.609 137.542 L 262.609 137.542 Q 262.184 138.45 260.175 143.781 L 260.175 143.781 L 260.175 143.781 Q 261.566 142.081 263.691 139.84 L 263.691 139.84 L 263.691 139.84 Q 267.979 135.359 269.601 135.359 L 269.601 135.359 L 269.601 135.359 Q 269.949 135.359 270.277 135.552 L 270.277 135.552 L 270.277 135.552 Q 270.606 135.746 270.606 136.422 L 270.606 136.422 L 270.606 136.422 Q 270.606 137.098 270.181 137.928 L 270.181 137.928 L 270.181 137.928 Q 269.756 138.759 269.215 139.956 L 269.215 139.956 L 269.215 139.956 Q 268.674 141.154 268.481 141.463 L 268.481 141.463 L 268.481 141.463 Q 271.726 138.527 273.387 137.89 L 273.387 137.89 L 273.387 137.89 Q 275.048 137.252 275.589 137.252 L 275.589 137.252 L 275.589 137.252 Q 276.13 137.252 276.13 137.639 L 276.13 137.639 L 276.13 137.639 Q 276.13 137.87 275.55 138.759 L 275.55 138.759 L 275.55 138.759 Q 274.971 139.647 274.276 141.386 L 274.276 141.386 L 274.276 141.386 Q 273.58 143.124 273.503 143.82 L 273.503 143.82 L 273.503 143.82 Q 273.426 144.515 273.426 145.056 L 273.426 145.056 L 273.426 145.056 Q 273.426 145.597 273.735 145.944 L 273.735 145.944 L 273.735 145.944 Q 274.314 146.562 275.319 146.021 L 275.319 146.021 L 275.319 146.021 Q 276.323 145.481 278.119 143.858 L 278.119 143.858 L 278.119 143.858 Q 279.916 142.236 280.997 140.69 L 280.997 140.69 L 280.997 140.69 Q 281.152 140.497 281.364 140.594 L 281.364 140.594 L 281.364 140.594 Q 281.577 140.69 281.577 140.787 L 281.577 140.787 L 281.577 140.787 Q 281.577 140.884 281.5 140.999 L 281.5 140.999 L 281.5 140.999 Q 280.92 142.042 279.414 143.665 L 279.414 143.665 L 279.414 143.665 Q 276.941 146.331 275.28 146.949 L 275.28 146.949 L 275.28 146.949 Q 273.464 147.567 272.653 147.103 L 272.653 147.103 L 272.653 147.103 Q 271.842 146.64 271.649 146.06 L 271.649 146.06 L 271.649 146.06 Q 271.455 145.481 271.455 144.901 L 271.455 144.901 L 271.455 144.901 Q 271.455 143.086 272.17 141.27 L 272.17 141.27 L 272.17 141.27 Q 272.885 139.454 273.31 138.797 L 273.31 138.797 L 273.31 138.797 Q 271.842 139.416 270.799 140.343 L 270.799 140.343 L 270.799 140.343 Q 269.215 141.733 268.249 142.776 L 268.249 142.776 L 267.476 143.626 L 267.476 143.626 Q 267.129 144.476 266.26 144.592 L 266.26 144.592 L 266.26 144.592 Q 265.39 144.708 265.429 144.013 L 265.429 144.013 L 265.429 144.013 Q 265.506 143.279 266.858 140.729 L 266.858 140.729 L 266.858 140.729 Q 268.21 138.179 268.21 137.89 L 268.21 137.89 L 268.21 137.89 Q 268.21 137.6 267.901 137.6 L 267.901 137.6 L 267.901 137.6 Q 267.206 137.6 265.39 139.184 L 265.39 139.184 L 265.39 139.184 Q 264.193 140.304 261.856 143.414 L 261.856 143.414 L 261.856 143.414 Q 259.518 146.524 259.209 146.717 L 259.209 146.717 L 259.209 146.717 Q 257.819 147.412 257.471 147.412 L 257.471 147.412 L 257.471 147.412 Q 257.123 147.412 257.123 147.296 L 257.123 147.296 L 257.123 147.296 Q 257.123 147.18 257.239 146.949 L 257.239 146.949 L 257.239 146.949 Q 257.355 146.717 259.596 140.227 L 259.596 140.227 L 259.596 140.227 Q 258.746 141.54 258.05 142.236 L 258.05 142.236 L 258.05 142.236 Q 257.741 142.583 257.741 142.1 L 257.741 142.1 L 257.741 142.1 Q 257.741 141.618 258.012 141.27 L 258.012 141.27 L 258.012 141.27 Q 259.75 138.991 260.561 137.407 L 260.561 137.407 L 260.561 137.407 Q 260.793 136.055 261.489 135.823 L 261.489 135.823 L 261.489 135.823 Q 261.914 135.668 262.474 135.823 L 262.474 135.823 L 262.474 135.823 Q 263.034 135.977 263.034 136.364 Z  M 282.465 146.833 L 282.465 146.833 L 282.465 146.833 Q 281.847 146.833 281.133 146.466 L 281.133 146.466 L 281.133 146.466 Q 280.418 146.099 279.916 145.423 L 279.916 145.423 L 279.916 145.423 Q 279.414 144.747 279.414 143.974 L 279.414 143.974 L 279.414 143.974 Q 279.414 143.201 279.761 142.506 L 279.761 142.506 L 279.761 142.506 Q 280.534 140.884 282.253 139.358 L 282.253 139.358 L 282.253 139.358 Q 283.972 137.832 285.826 136.75 L 285.826 136.75 L 285.826 136.75 Q 287.681 135.668 288.762 135.398 L 288.762 135.398 L 288.762 135.398 Q 289.844 135.127 290.868 135.127 L 290.868 135.127 L 290.868 135.127 Q 291.891 135.127 292.625 135.649 L 292.625 135.649 L 292.625 135.649 Q 293.359 136.171 293.359 136.75 L 293.359 136.75 L 293.359 136.75 Q 293.359 136.943 293.321 136.982 L 293.321 136.982 L 293.321 136.982 Q 293.282 137.02 293.128 136.943 L 293.128 136.943 L 293.128 136.943 Q 292.664 136.209 291.215 136.209 L 291.215 136.209 L 291.215 136.209 Q 289.767 136.209 287.932 137.156 L 287.932 137.156 L 287.932 137.156 Q 286.097 138.102 284.474 139.531 L 284.474 139.531 L 284.474 139.531 Q 283.122 140.806 282.098 142.409 L 282.098 142.409 L 282.098 142.409 Q 281.075 144.013 281.075 144.747 L 281.075 144.747 L 281.075 144.747 Q 281.075 146.176 281.886 146.176 L 281.886 146.176 L 281.886 146.176 Q 282.697 146.176 284.358 144.863 L 284.358 144.863 L 284.358 144.863 Q 287.101 142.545 288.106 141.463 L 288.106 141.463 L 288.106 141.463 Q 291.66 137.639 291.93 137.639 L 291.93 137.639 L 291.93 137.639 Q 292.394 137.639 293.05 137.909 L 293.05 137.909 L 293.05 137.909 Q 293.707 138.179 293.475 138.566 L 293.475 138.566 L 293.475 138.566 Q 291.505 141.347 291.157 144.167 L 291.157 144.167 L 291.157 144.167 Q 291.119 144.515 291.119 145.056 L 291.119 145.056 L 291.119 145.056 Q 291.119 145.597 291.428 145.944 L 291.428 145.944 L 291.428 145.944 Q 292.007 146.562 293.012 146.021 L 293.012 146.021 L 293.012 146.021 Q 294.016 145.481 295.812 143.858 L 295.812 143.858 L 295.812 143.858 Q 297.609 142.236 298.691 140.69 L 298.691 140.69 L 298.691 140.69 Q 298.845 140.497 299.038 140.594 L 299.038 140.594 L 299.038 140.594 Q 299.231 140.69 299.231 140.768 L 299.231 140.768 L 299.231 140.768 Q 299.231 141.347 297.396 143.298 L 297.396 143.298 L 297.396 143.298 Q 295.561 145.249 294.596 145.944 L 294.596 145.944 L 294.596 145.944 Q 292.78 147.296 291.235 147.296 L 291.235 147.296 L 291.235 147.296 Q 289.767 147.296 289.264 145.828 L 289.264 145.828 L 289.264 145.828 Q 289.149 145.365 289.149 144.785 L 289.149 144.785 L 289.149 144.785 Q 289.149 143.047 289.883 141.115 L 289.883 141.115 L 289.883 141.115 Q 289.728 141.193 288.453 142.661 L 288.453 142.661 L 288.453 142.661 Q 287.178 144.129 285.498 145.481 L 285.498 145.481 L 285.498 145.481 Q 283.817 146.833 282.465 146.833 Z  M 301.897 135.707 L 301.897 135.707 L 301.897 135.707 Q 302.863 135.707 303.056 136.325 L 303.056 136.325 L 303.056 136.325 Q 303.133 136.673 302.959 137.001 L 302.959 137.001 L 302.959 137.001 Q 302.785 137.329 302.708 137.523 L 302.708 137.523 L 302.708 137.523 Q 302.631 137.716 302.592 137.832 L 302.592 137.832 L 302.592 137.832 Q 302.399 138.218 302.206 138.566 L 302.206 138.566 L 302.206 138.566 Q 300.004 142.97 299.888 144.167 L 299.888 144.167 L 299.888 144.167 Q 299.849 144.515 299.849 145.056 L 299.849 145.056 L 299.849 145.056 Q 299.849 145.597 300.159 145.944 L 300.159 145.944 L 300.159 145.944 Q 300.699 146.562 301.704 146.021 L 301.704 146.021 L 301.704 146.021 Q 302.708 145.481 304.505 143.858 L 304.505 143.858 L 304.505 143.858 Q 306.301 142.236 307.421 140.69 L 307.421 140.69 L 307.421 140.69 Q 307.576 140.497 307.769 140.594 L 307.769 140.594 L 307.769 140.594 Q 307.962 140.69 307.962 140.787 L 307.962 140.787 L 307.962 140.787 Q 307.962 140.884 307.885 140.999 L 307.885 140.999 L 307.885 140.999 Q 307.305 142.042 305.799 143.665 L 305.799 143.665 L 305.799 143.665 Q 303.326 146.331 301.665 146.949 L 301.665 146.949 L 301.665 146.949 Q 300.699 147.296 300.043 147.296 L 300.043 147.296 L 300.043 147.296 Q 298.497 147.296 297.995 145.828 L 297.995 145.828 L 297.995 145.828 Q 297.918 145.558 297.918 145.172 L 297.918 145.172 L 297.918 145.172 Q 297.918 143.82 299.154 141.077 L 299.154 141.077 L 299.154 141.077 Q 298.961 141.502 297.647 143.008 L 297.647 143.008 L 297.647 143.008 Q 297.3 143.395 297.107 143.008 L 297.107 143.008 L 297.107 143.008 Q 297.068 142.931 297.068 142.796 L 297.068 142.796 L 297.068 142.796 Q 297.068 142.661 297.223 142.467 L 297.223 142.467 L 297.223 142.467 Q 299.115 140.111 300.197 138.488 L 300.197 138.488 L 300.197 138.488 Q 300.12 138.295 300.274 137.986 L 300.274 137.986 L 300.274 137.986 Q 301.047 135.823 301.627 135.707 L 301.627 135.707 L 301.627 135.707 Q 301.742 135.707 301.897 135.707 Z  M 304.949 130.569 L 304.949 130.569 L 304.64 131.805 L 304.64 131.805 Q 304.64 132.153 304.138 132.925 L 304.138 132.925 L 304.138 132.925 Q 303.635 133.698 303.365 133.698 L 303.365 133.698 L 303.365 133.698 Q 301.704 133.698 301.704 132.887 L 301.704 132.887 L 301.704 132.887 Q 301.704 132.732 303.365 131.458 L 303.365 131.458 L 304.022 130.955 L 304.022 130.955 Q 304.64 130.414 304.794 130.414 L 304.794 130.414 L 304.794 130.414 Q 304.949 130.414 304.949 130.569 Z  M 307.305 146.794 L 307.305 146.794 L 307.305 146.794 Q 306.803 147.374 307.093 147.721 L 307.093 147.721 L 307.093 147.721 Q 307.383 148.069 307.75 148.069 L 307.75 148.069 L 307.75 148.069 Q 308.117 148.069 308.503 147.953 L 308.503 147.953 L 308.503 147.953 Q 310.164 147.451 311.729 145.964 L 311.729 145.964 L 311.729 145.964 Q 313.293 144.476 313.293 142.931 L 313.293 142.931 L 313.293 142.931 Q 313.293 142.081 311.4 141.077 L 311.4 141.077 L 311.4 141.077 Q 310.512 140.613 310.396 140.536 L 310.396 140.536 L 310.396 140.536 Q 309.353 139.84 309.082 139.145 L 309.082 139.145 L 309.082 139.145 Q 308.541 140.072 307.344 141.811 L 307.344 141.811 L 307.344 141.811 Q 307.074 142.12 306.842 141.946 L 306.842 141.946 L 306.842 141.946 Q 306.61 141.772 306.803 141.463 L 306.803 141.463 L 306.803 141.463 Q 308.387 139.3 308.889 137.832 L 308.889 137.832 L 308.889 137.832 Q 309.16 135.707 311.98 134.007 L 311.98 134.007 L 311.98 134.007 Q 314.8 132.307 317.118 132.307 L 317.118 132.307 L 317.118 132.307 Q 318.586 132.307 319.184 132.829 L 319.184 132.829 L 319.184 132.829 Q 319.783 133.35 319.783 133.853 L 319.783 133.853 L 319.783 133.853 Q 319.783 134.355 319.493 135.012 L 319.493 135.012 L 319.493 135.012 Q 319.204 135.668 318.315 136.248 L 318.315 136.248 L 318.315 136.248 Q 318.083 136.402 317.929 136.171 L 317.929 136.171 L 317.929 136.171 Q 317.852 135.939 318.257 135.533 L 318.257 135.533 L 318.257 135.533 Q 318.663 135.127 318.779 134.432 L 318.779 134.432 L 318.779 134.432 Q 318.895 133.737 318.161 133.582 L 318.161 133.582 L 318.161 133.582 Q 318.045 133.582 317.929 133.582 L 317.929 133.582 L 317.929 133.582 Q 316.422 133.582 314.162 134.703 L 314.162 134.703 L 314.162 134.703 Q 311.902 135.823 310.628 137.6 L 310.628 137.6 L 310.628 137.6 Q 310.125 138.257 310.125 138.933 L 310.125 138.933 L 310.125 138.933 Q 310.125 139.609 311.053 140.15 L 311.053 140.15 L 311.053 140.15 Q 311.439 140.381 312.366 140.884 L 312.366 140.884 L 312.366 140.884 Q 313.293 141.386 313.679 141.618 L 313.679 141.618 L 313.679 141.618 Q 314.066 141.849 314.607 142.352 L 314.607 142.352 L 314.607 142.352 Q 315.147 142.854 315.186 143.279 L 315.186 143.279 L 315.186 143.279 Q 315.379 144.438 314.104 145.828 L 314.104 145.828 L 314.104 145.828 Q 312.289 147.837 308.696 148.648 L 308.696 148.648 L 308.696 148.648 Q 307.885 148.842 307.054 148.842 L 307.054 148.842 L 307.054 148.842 Q 306.224 148.842 305.915 148.223 L 305.915 148.223 L 305.915 148.223 Q 305.799 148.069 305.799 147.741 L 305.799 147.741 L 305.799 147.741 Q 305.799 147.412 306.417 146.678 L 306.417 146.678 L 306.417 146.678 Q 306.996 146.099 308.271 145.558 L 308.271 145.558 L 308.271 145.558 Q 308.387 145.519 308.464 145.597 L 308.464 145.597 L 308.464 145.597 Q 308.541 145.674 308.503 145.79 L 308.503 145.79 L 308.503 145.79 Q 308.464 145.906 308.097 146.06 L 308.097 146.06 L 308.097 146.06 Q 307.73 146.215 307.305 146.794 Z  M 177.35 146.794 L 177.35 146.794 L 177.35 146.794 Q 176.848 147.374 177.137 147.721 L 177.137 147.721 L 177.137 147.721 Q 177.427 148.069 177.794 148.069 L 177.794 148.069 L 177.794 148.069 Q 178.161 148.069 178.547 147.953 L 178.547 147.953 L 178.547 147.953 Q 180.208 147.451 181.773 145.964 L 181.773 145.964 L 181.773 145.964 Q 183.338 144.476 183.338 142.931 L 183.338 142.931 L 183.338 142.931 Q 183.338 142.081 181.445 141.077 L 181.445 141.077 L 181.445 141.077 Q 180.556 140.613 180.44 140.536 L 180.44 140.536 L 180.44 140.536 Q 179.397 139.84 179.127 139.145 L 179.127 139.145 L 179.127 139.145 Q 178.586 140.072 177.388 141.811 L 177.388 141.811 L 177.388 141.811 Q 177.118 142.12 176.886 141.946 L 176.886 141.946 L 176.886 141.946 Q 176.654 141.772 176.848 141.463 L 176.848 141.463 L 176.848 141.463 Q 178.431 139.3 178.934 137.832 L 178.934 137.832 L 178.934 137.832 Q 179.204 135.707 182.024 134.007 L 182.024 134.007 L 182.024 134.007 Q 184.844 132.307 187.162 132.307 L 187.162 132.307 L 187.162 132.307 Q 188.63 132.307 189.229 132.829 L 189.229 132.829 L 189.229 132.829 Q 189.828 133.35 189.828 133.853 L 189.828 133.853 L 189.828 133.853 Q 189.828 134.355 189.538 135.012 L 189.538 135.012 L 189.538 135.012 Q 189.248 135.668 188.36 136.248 L 188.36 136.248 L 188.36 136.248 Q 188.128 136.402 187.973 136.171 L 187.973 136.171 L 187.973 136.171 Q 187.896 135.939 188.302 135.533 L 188.302 135.533 L 188.302 135.533 Q 188.707 135.127 188.823 134.432 L 188.823 134.432 L 188.823 134.432 Q 188.939 133.737 188.205 133.582 L 188.205 133.582 L 188.205 133.582 Q 188.089 133.582 187.973 133.582 L 187.973 133.582 L 187.973 133.582 Q 186.467 133.582 184.207 134.703 L 184.207 134.703 L 184.207 134.703 Q 181.947 135.823 180.672 137.6 L 180.672 137.6 L 180.672 137.6 Q 180.17 138.257 180.17 138.933 L 180.17 138.933 L 180.17 138.933 Q 180.17 139.609 181.097 140.15 L 181.097 140.15 L 181.097 140.15 Q 181.483 140.381 182.41 140.884 L 182.41 140.884 L 182.41 140.884 Q 183.338 141.386 183.724 141.618 L 183.724 141.618 L 183.724 141.618 Q 184.11 141.849 184.651 142.352 L 184.651 142.352 L 184.651 142.352 Q 185.192 142.854 185.23 143.279 L 185.23 143.279 L 185.23 143.279 Q 185.424 144.438 184.149 145.828 L 184.149 145.828 L 184.149 145.828 Q 182.333 147.837 178.74 148.648 L 178.74 148.648 L 178.74 148.648 Q 177.929 148.842 177.099 148.842 L 177.099 148.842 L 177.099 148.842 Q 176.268 148.842 175.959 148.223 L 175.959 148.223 L 175.959 148.223 Q 175.843 148.069 175.843 147.741 L 175.843 147.741 L 175.843 147.741 Q 175.843 147.412 176.461 146.678 L 176.461 146.678 L 176.461 146.678 Q 177.041 146.099 178.315 145.558 L 178.315 145.558 L 178.315 145.558 Q 178.431 145.519 178.509 145.597 L 178.509 145.597 L 178.509 145.597 Q 178.586 145.674 178.547 145.79 L 178.547 145.79 L 178.547 145.79 Q 178.509 145.906 178.142 146.06 L 178.142 146.06 L 178.142 146.06 Q 177.775 146.215 177.35 146.794 Z  M 196.395 142.158 L 196.395 142.158 L 196.395 142.158 Q 197.09 140.729 197.09 139.956 L 197.09 139.956 L 197.09 139.956 Q 197.09 139.184 196.916 138.739 L 196.916 138.739 L 196.916 138.739 Q 196.743 138.295 197.071 137.986 L 197.071 137.986 L 197.071 137.986 Q 197.399 137.677 197.902 137.754 L 197.902 137.754 L 197.902 137.754 Q 198.674 137.948 198.674 139.493 L 198.674 139.493 L 198.674 139.493 Q 198.674 141.038 196.859 143.549 L 196.859 143.549 L 196.859 143.549 Q 196.897 144.592 197.94 144.592 L 197.94 144.592 L 197.94 144.592 Q 198.983 144.592 201.108 142.352 L 201.108 142.352 L 201.108 142.352 Q 202.112 141.193 202.363 140.845 L 202.363 140.845 L 202.363 140.845 Q 202.615 140.497 202.808 140.594 L 202.808 140.594 L 202.808 140.594 Q 203.001 140.69 203.001 140.768 L 203.001 140.768 L 203.001 140.768 Q 203.001 141.154 201.61 142.776 L 201.61 142.776 L 201.61 142.776 Q 199.408 145.481 197.708 145.481 L 197.708 145.481 L 197.708 145.481 Q 196.588 145.481 196.125 144.515 L 196.125 144.515 L 196.125 144.515 Q 195.352 145.326 194.618 146.021 L 194.618 146.021 L 194.618 146.021 Q 193.111 147.296 191.257 147.296 L 191.257 147.296 L 191.257 147.296 Q 190.214 147.296 189.519 146.794 L 189.519 146.794 L 189.519 146.794 Q 188.166 145.983 188.166 143.897 L 188.166 143.897 L 188.166 143.897 Q 188.166 141.618 189.712 139.261 L 189.712 139.261 L 189.712 139.261 Q 190.6 137.87 191.798 136.827 L 191.798 136.827 L 191.798 136.827 Q 193.691 135.166 195.391 135.166 L 195.391 135.166 L 195.391 135.166 Q 195.815 135.166 196.202 135.282 L 196.202 135.282 L 196.202 135.282 Q 197.361 135.668 197.361 136.75 L 197.361 136.75 L 197.361 136.75 Q 197.361 137.639 196.897 137.639 L 196.897 137.639 L 196.897 137.639 Q 196.704 137.561 196.704 137.059 L 196.704 137.059 L 196.704 137.059 Q 196.704 136.364 195.931 136.364 L 195.931 136.364 L 195.931 136.364 Q 194.579 136.364 192.455 138.836 L 192.455 138.836 L 192.455 138.836 Q 190.33 141.308 189.905 143.82 L 189.905 143.82 L 189.905 143.82 Q 189.828 144.244 189.828 144.766 L 189.828 144.766 L 189.828 144.766 Q 189.828 145.287 190.175 145.964 L 190.175 145.964 L 190.175 145.964 Q 190.523 146.64 191.469 146.64 L 191.469 146.64 L 191.469 146.64 Q 192.416 146.64 193.536 145.79 L 193.536 145.79 L 193.536 145.79 Q 194.657 144.94 195.545 143.626 L 195.545 143.626 L 195.429 143.395 L 195.429 143.395 Q 195.275 142.776 195.584 142.39 L 195.584 142.39 L 195.584 142.39 Q 195.893 142.004 196.395 142.158 Z  M 207.019 136.364 L 207.019 136.364 L 207.019 136.364 Q 207.019 136.634 206.594 137.542 L 206.594 137.542 L 206.594 137.542 Q 206.169 138.45 204.16 143.781 L 204.16 143.781 L 204.16 143.781 Q 205.551 142.081 207.675 139.84 L 207.675 139.84 L 207.675 139.84 Q 211.963 135.359 213.586 135.359 L 213.586 135.359 L 213.586 135.359 Q 213.934 135.359 214.262 135.552 L 214.262 135.552 L 214.262 135.552 Q 214.59 135.746 214.59 136.422 L 214.59 136.422 L 214.59 136.422 Q 214.59 137.098 214.165 137.928 L 214.165 137.928 L 214.165 137.928 Q 213.74 138.759 213.2 139.956 L 213.2 139.956 L 213.2 139.956 Q 212.659 141.154 212.466 141.463 L 212.466 141.463 L 212.466 141.463 Q 215.711 138.527 217.372 137.89 L 217.372 137.89 L 217.372 137.89 Q 219.033 137.252 219.574 137.252 L 219.574 137.252 L 219.574 137.252 Q 220.115 137.252 220.115 137.639 L 220.115 137.639 L 220.115 137.639 Q 220.115 137.87 219.535 138.759 L 219.535 138.759 L 219.535 138.759 Q 218.956 139.647 218.26 141.386 L 218.26 141.386 L 218.26 141.386 Q 217.565 143.124 217.488 143.82 L 217.488 143.82 L 217.488 143.82 Q 217.41 144.515 217.41 145.056 L 217.41 145.056 L 217.41 145.056 Q 217.41 145.597 217.719 145.944 L 217.719 145.944 L 217.719 145.944 Q 218.299 146.562 219.303 146.021 L 219.303 146.021 L 219.303 146.021 Q 220.308 145.481 222.104 143.858 L 222.104 143.858 L 222.104 143.858 Q 223.9 142.236 224.982 140.69 L 224.982 140.69 L 224.982 140.69 Q 225.137 140.497 225.349 140.594 L 225.349 140.594 L 225.349 140.594 Q 225.562 140.69 225.562 140.787 L 225.562 140.787 L 225.562 140.787 Q 225.562 140.884 225.484 140.999 L 225.484 140.999 L 225.484 140.999 Q 224.905 142.042 223.398 143.665 L 223.398 143.665 L 223.398 143.665 Q 220.926 146.331 219.265 146.949 L 219.265 146.949 L 219.265 146.949 Q 217.449 147.567 216.638 147.103 L 216.638 147.103 L 216.638 147.103 Q 215.826 146.64 215.633 146.06 L 215.633 146.06 L 215.633 146.06 Q 215.44 145.481 215.44 144.901 L 215.44 144.901 L 215.44 144.901 Q 215.44 143.086 216.155 141.27 L 216.155 141.27 L 216.155 141.27 Q 216.87 139.454 217.294 138.797 L 217.294 138.797 L 217.294 138.797 Q 215.826 139.416 214.783 140.343 L 214.783 140.343 L 214.783 140.343 Q 213.2 141.733 212.234 142.776 L 212.234 142.776 L 211.461 143.626 L 211.461 143.626 Q 211.113 144.476 210.244 144.592 L 210.244 144.592 L 210.244 144.592 Q 209.375 144.708 209.414 144.013 L 209.414 144.013 L 209.414 144.013 Q 209.491 143.279 210.843 140.729 L 210.843 140.729 L 210.843 140.729 Q 212.195 138.179 212.195 137.89 L 212.195 137.89 L 212.195 137.89 Q 212.195 137.6 211.886 137.6 L 211.886 137.6 L 211.886 137.6 Q 211.191 137.6 209.375 139.184 L 209.375 139.184 L 209.375 139.184 Q 208.177 140.304 205.84 143.414 L 205.84 143.414 L 205.84 143.414 Q 203.503 146.524 203.194 146.717 L 203.194 146.717 L 203.194 146.717 Q 201.803 147.412 201.456 147.412 L 201.456 147.412 L 201.456 147.412 Q 201.108 147.412 201.108 147.296 L 201.108 147.296 L 201.108 147.296 Q 201.108 147.18 201.224 146.949 L 201.224 146.949 L 201.224 146.949 Q 201.34 146.717 203.58 140.227 L 203.58 140.227 L 203.58 140.227 Q 202.73 141.54 202.035 142.236 L 202.035 142.236 L 202.035 142.236 Q 201.726 142.583 201.726 142.1 L 201.726 142.1 L 201.726 142.1 Q 201.726 141.618 201.996 141.27 L 201.996 141.27 L 201.996 141.27 Q 203.735 138.991 204.546 137.407 L 204.546 137.407 L 204.546 137.407 Q 204.778 136.055 205.473 135.823 L 205.473 135.823 L 205.473 135.823 Q 205.898 135.668 206.458 135.823 L 206.458 135.823 L 206.458 135.823 Q 207.019 135.977 207.019 136.364 Z  M 232.515 142.158 L 232.515 142.158 L 232.515 142.158 Q 233.211 140.729 233.211 139.956 L 233.211 139.956 L 233.211 139.956 Q 233.211 139.184 233.037 138.739 L 233.037 138.739 L 233.037 138.739 Q 232.863 138.295 233.191 137.986 L 233.191 137.986 L 233.191 137.986 Q 233.52 137.677 234.022 137.754 L 234.022 137.754 L 234.022 137.754 Q 234.794 137.948 234.794 139.493 L 234.794 139.493 L 234.794 139.493 Q 234.794 141.038 232.979 143.549 L 232.979 143.549 L 232.979 143.549 Q 233.017 144.592 234.06 144.592 L 234.06 144.592 L 234.06 144.592 Q 235.103 144.592 237.228 142.352 L 237.228 142.352 L 237.228 142.352 Q 238.233 141.193 238.484 140.845 L 238.484 140.845 L 238.484 140.845 Q 238.735 140.497 238.928 140.594 L 238.928 140.594 L 238.928 140.594 Q 239.121 140.69 239.121 140.768 L 239.121 140.768 L 239.121 140.768 Q 239.121 141.154 237.73 142.776 L 237.73 142.776 L 237.73 142.776 Q 235.528 145.481 233.829 145.481 L 233.829 145.481 L 233.829 145.481 Q 232.708 145.481 232.245 144.515 L 232.245 144.515 L 232.245 144.515 Q 231.472 145.326 230.738 146.021 L 230.738 146.021 L 230.738 146.021 Q 229.232 147.296 227.377 147.296 L 227.377 147.296 L 227.377 147.296 Q 226.334 147.296 225.639 146.794 L 225.639 146.794 L 225.639 146.794 Q 224.287 145.983 224.287 143.897 L 224.287 143.897 L 224.287 143.897 Q 224.287 141.618 225.832 139.261 L 225.832 139.261 L 225.832 139.261 Q 226.72 137.87 227.918 136.827 L 227.918 136.827 L 227.918 136.827 Q 229.811 135.166 231.511 135.166 L 231.511 135.166 L 231.511 135.166 Q 231.936 135.166 232.322 135.282 L 232.322 135.282 L 232.322 135.282 Q 233.481 135.668 233.481 136.75 L 233.481 136.75 L 233.481 136.75 Q 233.481 137.639 233.017 137.639 L 233.017 137.639 L 233.017 137.639 Q 232.824 137.561 232.824 137.059 L 232.824 137.059 L 232.824 137.059 Q 232.824 136.364 232.052 136.364 L 232.052 136.364 L 232.052 136.364 Q 230.699 136.364 228.575 138.836 L 228.575 138.836 L 228.575 138.836 Q 226.45 141.308 226.025 143.82 L 226.025 143.82 L 226.025 143.82 Q 225.948 144.244 225.948 144.766 L 225.948 144.766 L 225.948 144.766 Q 225.948 145.287 226.296 145.964 L 226.296 145.964 L 226.296 145.964 Q 226.643 146.64 227.59 146.64 L 227.59 146.64 L 227.59 146.64 Q 228.536 146.64 229.656 145.79 L 229.656 145.79 L 229.656 145.79 Q 230.777 144.94 231.665 143.626 L 231.665 143.626 L 231.549 143.395 L 231.549 143.395 Q 231.395 142.776 231.704 142.39 L 231.704 142.39 L 231.704 142.39 Q 232.013 142.004 232.515 142.158 Z  M 238.464 146.794 L 238.464 146.794 L 238.464 146.794 Q 237.962 147.374 238.252 147.721 L 238.252 147.721 L 238.252 147.721 Q 238.542 148.069 238.909 148.069 L 238.909 148.069 L 238.909 148.069 Q 239.276 148.069 239.662 147.953 L 239.662 147.953 L 239.662 147.953 Q 241.323 147.451 242.888 145.964 L 242.888 145.964 L 242.888 145.964 Q 244.452 144.476 244.452 142.931 L 244.452 142.931 L 244.452 142.931 Q 244.452 142.081 242.559 141.077 L 242.559 141.077 L 242.559 141.077 Q 241.671 140.613 241.555 140.536 L 241.555 140.536 L 241.555 140.536 Q 240.512 139.84 240.241 139.145 L 240.241 139.145 L 240.241 139.145 Q 239.701 140.072 238.503 141.811 L 238.503 141.811 L 238.503 141.811 Q 238.233 142.12 238.001 141.946 L 238.001 141.946 L 238.001 141.946 Q 237.769 141.772 237.962 141.463 L 237.962 141.463 L 237.962 141.463 Q 239.546 139.3 240.048 137.832 L 240.048 137.832 L 240.048 137.832 Q 240.319 135.707 243.139 134.007 L 243.139 134.007 L 243.139 134.007 Q 245.959 132.307 248.277 132.307 L 248.277 132.307 L 248.277 132.307 Q 249.745 132.307 250.343 132.829 L 250.343 132.829 L 250.343 132.829 Q 250.942 133.35 250.942 133.853 L 250.942 133.853 L 250.942 133.853 Q 250.942 134.355 250.653 135.012 L 250.653 135.012 L 250.653 135.012 Q 250.363 135.668 249.474 136.248 L 249.474 136.248 L 249.474 136.248 Q 249.243 136.402 249.088 136.171 L 249.088 136.171 L 249.088 136.171 Q 249.011 135.939 249.416 135.533 L 249.416 135.533 L 249.416 135.533 Q 249.822 135.127 249.938 134.432 L 249.938 134.432 L 249.938 134.432 Q 250.054 133.737 249.32 133.582 L 249.32 133.582 L 249.32 133.582 Q 249.204 133.582 249.088 133.582 L 249.088 133.582 L 249.088 133.582 Q 247.581 133.582 245.321 134.703 L 245.321 134.703 L 245.321 134.703 Q 243.062 135.823 241.787 137.6 L 241.787 137.6 L 241.787 137.6 Q 241.284 138.257 241.284 138.933 L 241.284 138.933 L 241.284 138.933 Q 241.284 139.609 242.212 140.15 L 242.212 140.15 L 242.212 140.15 Q 242.598 140.381 243.525 140.884 L 243.525 140.884 L 243.525 140.884 Q 244.452 141.386 244.839 141.618 L 244.839 141.618 L 244.839 141.618 Q 245.225 141.849 245.766 142.352 L 245.766 142.352 L 245.766 142.352 Q 246.307 142.854 246.345 143.279 L 246.345 143.279 L 246.345 143.279 Q 246.538 144.438 245.263 145.828 L 245.263 145.828 L 245.263 145.828 Q 243.448 147.837 239.855 148.648 L 239.855 148.648 L 239.855 148.648 Q 239.044 148.842 238.213 148.842 L 238.213 148.842 L 238.213 148.842 Q 237.383 148.842 237.074 148.223 L 237.074 148.223 L 237.074 148.223 Q 236.958 148.069 236.958 147.741 L 236.958 147.741 L 236.958 147.741 Q 236.958 147.412 237.576 146.678 L 237.576 146.678 L 237.576 146.678 Q 238.155 146.099 239.43 145.558 L 239.43 145.558 L 239.43 145.558 Q 239.546 145.519 239.623 145.597 L 239.623 145.597 L 239.623 145.597 Q 239.701 145.674 239.662 145.79 L 239.662 145.79 L 239.662 145.79 Q 239.623 145.906 239.256 146.06 L 239.256 146.06 L 239.256 146.06 Q 238.889 146.215 238.464 146.794 Z  M 86.45 127.324 L 86.45 127.324 L 86.45 127.324 Q 87.957 125.431 91.781 124.736 L 91.781 124.736 L 91.781 124.736 Q 93.443 124.465 95.181 124.465 L 95.181 124.465 L 95.181 124.465 Q 96.919 124.465 98.774 124.774 L 98.774 124.774 L 98.774 124.774 Q 99.778 123.654 100.821 123.654 L 100.821 123.654 L 100.821 123.654 Q 101.092 123.654 101.188 123.789 L 101.188 123.789 L 101.188 123.789 Q 101.285 123.924 101.169 124.079 L 101.169 124.079 L 101.169 124.079 Q 101.053 124.233 100.647 124.369 L 100.647 124.369 L 100.647 124.369 Q 100.242 124.504 99.701 124.967 L 99.701 124.967 L 99.701 124.967 Q 101.014 125.354 101.517 125.605 L 101.517 125.605 L 101.517 125.605 Q 102.019 125.856 102.27 126.242 L 102.27 126.242 L 102.27 126.242 Q 102.521 126.629 102.521 126.783 L 102.521 126.783 L 102.521 126.783 Q 102.521 127.131 101.459 126.783 L 101.459 126.783 L 101.459 126.783 Q 100.396 126.435 98.967 126.242 L 98.967 126.242 L 98.967 126.242 Q 98.272 127.903 97.499 130.801 L 97.499 130.801 L 97.499 130.801 Q 96.726 133.698 96.572 134.278 L 96.572 134.278 L 96.572 134.278 Q 98.658 133.775 99.372 133.775 L 99.372 133.775 L 99.372 133.775 Q 100.087 133.775 100.242 133.872 L 100.242 133.872 L 100.242 133.872 Q 100.396 133.969 100.416 134.123 L 100.416 134.123 L 100.416 134.123 Q 100.435 134.278 100.358 134.374 L 100.358 134.374 L 100.358 134.374 Q 100.28 134.471 100.106 134.393 L 100.106 134.393 L 100.106 134.393 Q 99.933 134.316 99.469 134.316 L 99.469 134.316 L 99.469 134.316 Q 99.006 134.316 97.731 134.645 L 97.731 134.645 L 97.731 134.645 Q 96.456 134.973 96.224 135.63 L 96.224 135.63 L 96.224 135.63 Q 92.67 145.403 87.184 149.228 L 87.184 149.228 L 87.184 149.228 Q 84.751 150.966 82.742 150.966 L 82.742 150.966 L 82.742 150.966 Q 82.008 150.966 81.351 150.735 L 81.351 150.735 L 81.351 150.735 Q 79.381 150.078 79.381 147.818 L 79.381 147.818 L 79.381 147.818 Q 79.381 145.558 81.737 142.854 L 81.737 142.854 L 81.737 142.854 Q 86.489 137.407 94.563 134.857 L 94.563 134.857 L 94.563 134.857 Q 94.679 134.509 95.297 132.578 L 95.297 132.578 L 95.297 132.578 Q 96.649 128.174 97.808 126.165 L 97.808 126.165 L 97.808 126.165 Q 97.344 126.165 96.417 126.165 L 96.417 126.165 L 96.417 126.165 Q 95.49 126.165 93.79 126.358 L 93.79 126.358 L 93.79 126.358 Q 89.425 126.86 87.571 128.56 L 87.571 128.56 L 87.571 128.56 Q 86.605 129.487 86.605 130.685 L 86.605 130.685 L 86.605 130.685 Q 86.605 131.264 86.933 131.728 L 86.933 131.728 L 86.933 131.728 Q 87.262 132.191 87.571 132.385 L 87.571 132.385 L 87.571 132.385 Q 88.073 132.732 88.923 133.157 L 88.923 133.157 L 88.923 133.157 Q 89.386 133.505 89.116 133.582 L 89.116 133.582 L 89.116 133.582 Q 89 133.582 88.845 133.544 L 88.845 133.544 L 88.845 133.544 Q 87.918 133.35 86.875 132.423 L 86.875 132.423 L 86.875 132.423 Q 85.832 131.496 85.794 130.299 L 85.794 130.299 L 85.794 130.299 Q 85.678 129.874 85.678 129.603 L 85.678 129.603 L 85.678 129.603 Q 85.678 128.328 86.45 127.324 Z  M 81.39 147.528 L 81.39 147.528 L 81.39 147.528 Q 81.39 147.953 81.467 148.378 L 81.467 148.378 L 81.467 148.378 Q 81.853 149.846 83.398 149.846 L 83.398 149.846 L 83.398 149.846 Q 85.678 149.846 88.189 146.794 L 88.189 146.794 L 88.189 146.794 Q 91.897 142.274 94.331 135.591 L 94.331 135.591 L 94.331 135.591 Q 87.571 137.793 83.63 142.738 L 83.63 142.738 L 83.63 142.738 Q 81.39 145.481 81.39 147.528 Z  M 119.944 140.999 L 119.944 140.999 Q 119.364 142.042 117.858 143.665 L 117.858 143.665 L 117.858 143.665 Q 116.351 145.287 115.153 146.176 L 115.153 146.176 L 115.153 146.176 Q 113.608 147.296 111.792 147.296 L 111.792 147.296 L 111.792 147.296 Q 111.445 147.296 110.885 146.968 L 110.885 146.968 L 110.885 146.968 Q 110.324 146.64 110.131 146.021 L 110.131 146.021 L 110.131 146.021 Q 109.938 145.403 109.938 144.824 L 109.938 144.824 L 109.938 144.824 Q 109.938 142.815 110.711 140.845 L 110.711 140.845 L 110.711 140.845 Q 110.595 140.922 109.648 142.487 L 109.648 142.487 L 109.648 142.487 Q 108.702 144.051 107.331 145.442 L 107.331 145.442 L 107.331 145.442 Q 105.959 146.833 104.568 146.833 L 104.568 146.833 L 104.568 146.833 Q 103.912 146.833 103.062 146.485 L 103.062 146.485 L 103.062 146.485 Q 101.517 145.79 101.517 143.935 L 101.517 143.935 L 101.517 143.935 Q 101.517 141.656 103.081 139.242 L 103.081 139.242 L 103.081 139.242 Q 104.646 136.827 105.071 136.673 L 105.071 136.673 L 105.071 136.673 Q 105.65 136.518 106.172 136.518 L 106.172 136.518 L 106.172 136.518 Q 106.693 136.518 107.234 136.731 L 107.234 136.731 L 107.234 136.731 Q 107.775 136.943 107.079 137.445 L 107.079 137.445 L 107.079 137.445 Q 104.414 139.879 103.294 142.854 L 103.294 142.854 L 103.294 142.854 Q 102.869 144.013 102.869 144.805 L 102.869 144.805 L 102.869 144.805 Q 102.869 145.597 103.274 145.828 L 103.274 145.828 L 103.274 145.828 Q 103.68 146.06 104.066 146.06 L 104.066 146.06 L 104.066 146.06 Q 104.993 146.06 106.597 144.766 L 106.597 144.766 L 106.597 144.766 Q 108.2 143.472 111.02 139.377 L 111.02 139.377 L 111.02 139.377 Q 111.406 138.797 112.372 137.117 L 112.372 137.117 L 112.372 137.117 Q 113.338 135.437 113.531 135.127 L 113.531 135.127 L 113.531 135.127 Q 114.149 135.127 114.98 135.417 L 114.98 135.417 L 114.98 135.417 Q 115.81 135.707 115.54 136.171 L 115.54 136.171 L 115.54 136.171 Q 113.685 139.261 112.932 140.729 L 112.932 140.729 L 112.932 140.729 Q 112.179 142.197 111.908 144.167 L 111.908 144.167 L 111.908 144.167 Q 111.87 144.515 111.87 145.056 L 111.87 145.056 L 111.87 145.056 Q 111.87 145.597 112.179 145.944 L 112.179 145.944 L 112.179 145.944 Q 112.758 146.562 113.782 146.002 L 113.782 146.002 L 113.782 146.002 Q 114.806 145.442 116.583 143.839 L 116.583 143.839 L 116.583 143.839 Q 118.36 142.236 119.441 140.69 L 119.441 140.69 L 119.441 140.69 Q 119.596 140.497 119.808 140.594 L 119.808 140.594 L 119.808 140.594 Q 120.021 140.69 120.021 140.787 L 120.021 140.787 L 120.021 140.787 Q 120.021 140.884 119.944 140.999 L 119.944 140.999 L 119.944 140.999 Z  M 129.717 135.437 L 129.717 135.437 L 129.717 135.437 Q 130.606 135.437 130.606 136.383 L 130.606 136.383 L 130.606 136.383 Q 130.606 137.329 129.717 138.991 L 129.717 138.991 L 129.717 138.991 Q 128.829 140.652 128.404 141.695 L 128.404 141.695 L 128.404 141.695 Q 127.67 143.472 127.67 144.534 L 127.67 144.534 L 127.67 144.534 Q 127.67 145.597 127.979 145.944 L 127.979 145.944 L 127.979 145.944 Q 128.558 146.562 129.563 146.002 L 129.563 146.002 L 129.563 146.002 Q 130.567 145.442 132.364 143.839 L 132.364 143.839 L 132.364 143.839 Q 134.16 142.236 135.242 140.69 L 135.242 140.69 L 135.242 140.69 Q 135.396 140.497 135.609 140.594 L 135.609 140.594 L 135.609 140.594 Q 135.821 140.69 135.821 140.787 L 135.821 140.787 L 135.821 140.787 Q 135.821 140.884 135.744 140.999 L 135.744 140.999 L 135.744 140.999 Q 135.164 142.042 133.658 143.665 L 133.658 143.665 L 133.658 143.665 Q 132.151 145.287 130.76 146.273 L 130.76 146.273 L 130.76 146.273 Q 129.37 147.258 128.018 147.258 L 128.018 147.258 L 128.018 147.258 Q 126.704 147.219 126.163 146.659 L 126.163 146.659 L 126.163 146.659 Q 125.622 146.099 125.622 145.249 L 125.622 145.249 L 125.622 145.249 Q 125.622 144.399 125.777 143.607 L 125.777 143.607 L 125.777 143.607 Q 125.931 142.815 126.356 141.772 L 126.356 141.772 L 126.356 141.772 Q 127.052 140.111 127.573 139.184 L 127.573 139.184 L 127.573 139.184 Q 128.095 138.257 128.095 137.967 L 128.095 137.967 L 128.095 137.967 Q 128.095 137.677 127.786 137.677 L 127.786 137.677 L 127.786 137.677 Q 127.168 137.677 125.429 139.184 L 125.429 139.184 L 125.429 139.184 Q 124.232 140.304 121.895 143.414 L 121.895 143.414 L 121.895 143.414 Q 119.557 146.524 119.248 146.717 L 119.248 146.717 L 119.248 146.717 Q 117.858 147.412 117.51 147.412 L 117.51 147.412 L 117.51 147.412 Q 117.162 147.412 117.162 147.296 L 117.162 147.296 L 117.162 147.296 Q 117.162 147.18 117.239 146.968 L 117.239 146.968 L 117.239 146.968 Q 117.317 146.755 117.993 144.863 L 117.993 144.863 L 117.993 144.863 Q 118.669 142.97 119.461 140.71 L 119.461 140.71 L 119.461 140.71 Q 120.253 138.45 120.427 137.986 L 120.427 137.986 L 120.427 137.986 Q 120.6 137.523 120.658 137.194 L 120.658 137.194 L 120.658 137.194 Q 120.716 136.866 120.794 136.634 L 120.794 136.634 L 120.794 136.634 Q 120.871 136.402 121.083 136.113 L 121.083 136.113 L 121.083 136.113 Q 121.296 135.823 121.643 135.804 L 121.643 135.804 L 121.643 135.804 Q 121.991 135.784 122.532 135.881 L 122.532 135.881 L 122.532 135.881 Q 123.073 135.977 123.073 136.364 L 123.073 136.364 L 123.073 136.364 Q 123.073 136.634 122.648 137.542 L 122.648 137.542 L 122.648 137.542 Q 122.223 138.45 120.214 143.781 L 120.214 143.781 L 120.214 143.781 Q 121.605 142.081 123.73 139.86 L 123.73 139.86 L 123.73 139.86 Q 125.854 137.639 127.322 136.48 L 127.322 136.48 L 127.322 136.48 Q 128.79 135.437 129.717 135.437 Z  M 140.457 135.63 L 140.959 135.591 L 140.959 135.591 Q 143.934 135.321 144.571 135.321 L 144.571 135.321 L 144.571 135.321 Q 145.208 135.321 145.208 135.514 L 145.208 135.514 L 145.208 135.514 Q 145.208 135.746 144.301 135.997 L 144.301 135.997 L 144.301 135.997 Q 143.393 136.248 139.877 136.634 L 139.877 136.634 L 139.877 136.634 Q 139.684 136.982 139.414 137.445 L 139.414 137.445 L 139.414 137.445 Q 138.834 138.373 138.796 138.566 L 138.796 138.566 L 138.796 138.566 Q 136.594 142.97 136.478 144.167 L 136.478 144.167 L 136.478 144.167 Q 136.439 144.515 136.439 145.056 L 136.439 145.056 L 136.439 145.056 Q 136.439 145.597 136.748 145.944 L 136.748 145.944 L 136.748 145.944 Q 137.289 146.562 138.294 146.021 L 138.294 146.021 L 138.294 146.021 Q 139.298 145.481 141.094 143.858 L 141.094 143.858 L 141.094 143.858 Q 142.891 142.236 144.011 140.69 L 144.011 140.69 L 144.011 140.69 Q 144.165 140.497 144.397 140.613 L 144.397 140.613 L 144.397 140.613 Q 144.977 140.884 142.388 143.665 L 142.388 143.665 L 142.388 143.665 Q 139.916 146.331 138.255 146.949 L 138.255 146.949 L 138.255 146.949 Q 137.289 147.296 136.632 147.296 L 136.632 147.296 L 136.632 147.296 Q 135.087 147.296 134.585 145.828 L 134.585 145.828 L 134.585 145.828 Q 134.508 145.558 134.508 145.172 L 134.508 145.172 L 134.508 145.172 Q 134.508 143.82 135.744 141.077 L 135.744 141.077 L 135.744 141.077 Q 135.551 141.502 134.237 143.008 L 134.237 143.008 L 134.237 143.008 Q 133.89 143.395 133.696 143.008 L 133.696 143.008 L 133.696 143.008 Q 133.658 142.931 133.658 142.796 L 133.658 142.796 L 133.658 142.796 Q 133.658 142.661 133.812 142.467 L 133.812 142.467 L 133.812 142.467 Q 135.705 140.111 136.787 138.488 L 136.787 138.488 L 136.787 138.488 Q 136.787 138.45 137.637 136.866 L 137.637 136.866 L 137.637 136.866 Q 137.25 136.943 136.845 136.943 L 136.845 136.943 L 136.845 136.943 Q 136.439 136.943 136.246 136.692 L 136.246 136.692 L 136.246 136.692 Q 136.053 136.441 136.207 136.093 L 136.207 136.093 L 136.207 136.093 Q 136.478 135.475 138.255 135.398 L 138.255 135.398 L 138.255 135.398 Q 138.294 135.321 138.409 135.321 L 138.409 135.321 L 140.341 131.728 L 140.341 131.728 Q 140.495 131.419 140.689 131.091 L 140.689 131.091 L 140.689 131.091 Q 140.882 130.762 140.978 130.588 L 140.978 130.588 L 140.978 130.588 Q 141.075 130.414 141.191 130.221 L 141.191 130.221 L 141.191 130.221 Q 141.307 130.028 141.384 129.951 L 141.384 129.951 L 141.384 129.951 Q 141.461 129.874 141.539 129.796 L 141.539 129.796 L 141.539 129.796 Q 141.693 129.565 142.446 129.565 L 142.446 129.565 L 142.446 129.565 Q 143.2 129.565 143.47 129.99 L 143.47 129.99 L 143.47 129.99 Q 143.586 130.144 143.586 130.511 L 143.586 130.511 L 143.586 130.511 Q 143.586 130.878 143.316 131.322 L 143.316 131.322 L 143.316 131.322 Q 143.045 131.767 142.736 131.96 L 142.736 131.96 L 142.736 131.96 Q 142.427 132.153 142.311 132.385 L 142.311 132.385 L 140.457 135.63 L 140.457 135.63 Z  M 151.505 142.158 L 151.505 142.158 L 151.505 142.158 Q 152.201 140.729 152.201 139.956 L 152.201 139.956 L 152.201 139.956 Q 152.201 139.184 152.027 138.739 L 152.027 138.739 L 152.027 138.739 Q 151.853 138.295 152.181 137.986 L 152.181 137.986 L 152.181 137.986 Q 152.51 137.677 153.012 137.754 L 153.012 137.754 L 153.012 137.754 Q 153.785 137.948 153.785 139.493 L 153.785 139.493 L 153.785 139.493 Q 153.785 141.038 151.969 143.549 L 151.969 143.549 L 151.969 143.549 Q 152.008 144.592 153.051 144.592 L 153.051 144.592 L 153.051 144.592 Q 154.094 144.592 156.218 142.352 L 156.218 142.352 L 156.218 142.352 Q 157.223 141.193 157.474 140.845 L 157.474 140.845 L 157.474 140.845 Q 157.725 140.497 157.918 140.594 L 157.918 140.594 L 157.918 140.594 Q 158.111 140.69 158.111 140.768 L 158.111 140.768 L 158.111 140.768 Q 158.111 141.154 156.721 142.776 L 156.721 142.776 L 156.721 142.776 Q 154.519 145.481 152.819 145.481 L 152.819 145.481 L 152.819 145.481 Q 151.699 145.481 151.235 144.515 L 151.235 144.515 L 151.235 144.515 Q 150.462 145.326 149.728 146.021 L 149.728 146.021 L 149.728 146.021 Q 148.222 147.296 146.367 147.296 L 146.367 147.296 L 146.367 147.296 Q 145.324 147.296 144.629 146.794 L 144.629 146.794 L 144.629 146.794 Q 143.277 145.983 143.277 143.897 L 143.277 143.897 L 143.277 143.897 Q 143.277 141.618 144.822 139.261 L 144.822 139.261 L 144.822 139.261 Q 145.711 137.87 146.908 136.827 L 146.908 136.827 L 146.908 136.827 Q 148.801 135.166 150.501 135.166 L 150.501 135.166 L 150.501 135.166 Q 150.926 135.166 151.312 135.282 L 151.312 135.282 L 151.312 135.282 Q 152.471 135.668 152.471 136.75 L 152.471 136.75 L 152.471 136.75 Q 152.471 137.639 152.008 137.639 L 152.008 137.639 L 152.008 137.639 Q 151.814 137.561 151.814 137.059 L 151.814 137.059 L 151.814 137.059 Q 151.814 136.364 151.042 136.364 L 151.042 136.364 L 151.042 136.364 Q 149.69 136.364 147.565 138.836 L 147.565 138.836 L 147.565 138.836 Q 145.44 141.308 145.015 143.82 L 145.015 143.82 L 145.015 143.82 Q 144.938 144.244 144.938 144.766 L 144.938 144.766 L 144.938 144.766 Q 144.938 145.287 145.286 145.964 L 145.286 145.964 L 145.286 145.964 Q 145.633 146.64 146.58 146.64 L 146.58 146.64 L 146.58 146.64 Q 147.526 146.64 148.647 145.79 L 148.647 145.79 L 148.647 145.79 Q 149.767 144.94 150.656 143.626 L 150.656 143.626 L 150.54 143.395 L 150.54 143.395 Q 150.385 142.776 150.694 142.39 L 150.694 142.39 L 150.694 142.39 Q 151.003 142.004 151.505 142.158 Z  M 157.455 146.794 L 157.455 146.794 L 157.455 146.794 Q 156.952 147.374 157.242 147.721 L 157.242 147.721 L 157.242 147.721 Q 157.532 148.069 157.899 148.069 L 157.899 148.069 L 157.899 148.069 Q 158.266 148.069 158.652 147.953 L 158.652 147.953 L 158.652 147.953 Q 160.313 147.451 161.878 145.964 L 161.878 145.964 L 161.878 145.964 Q 163.442 144.476 163.442 142.931 L 163.442 142.931 L 163.442 142.931 Q 163.442 142.081 161.55 141.077 L 161.55 141.077 L 161.55 141.077 Q 160.661 140.613 160.545 140.536 L 160.545 140.536 L 160.545 140.536 Q 159.502 139.84 159.232 139.145 L 159.232 139.145 L 159.232 139.145 Q 158.691 140.072 157.493 141.811 L 157.493 141.811 L 157.493 141.811 Q 157.223 142.12 156.991 141.946 L 156.991 141.946 L 156.991 141.946 Q 156.759 141.772 156.952 141.463 L 156.952 141.463 L 156.952 141.463 Q 158.536 139.3 159.038 137.832 L 159.038 137.832 L 159.038 137.832 Q 159.309 135.707 162.129 134.007 L 162.129 134.007 L 162.129 134.007 Q 164.949 132.307 167.267 132.307 L 167.267 132.307 L 167.267 132.307 Q 168.735 132.307 169.334 132.829 L 169.334 132.829 L 169.334 132.829 Q 169.933 133.35 169.933 133.853 L 169.933 133.853 L 169.933 133.853 Q 169.933 134.355 169.643 135.012 L 169.643 135.012 L 169.643 135.012 Q 169.353 135.668 168.465 136.248 L 168.465 136.248 L 168.465 136.248 Q 168.233 136.402 168.078 136.171 L 168.078 136.171 L 168.078 136.171 Q 168.001 135.939 168.407 135.533 L 168.407 135.533 L 168.407 135.533 Q 168.812 135.127 168.928 134.432 L 168.928 134.432 L 168.928 134.432 Q 169.044 133.737 168.31 133.582 L 168.31 133.582 L 168.31 133.582 Q 168.194 133.582 168.078 133.582 L 168.078 133.582 L 168.078 133.582 Q 166.572 133.582 164.312 134.703 L 164.312 134.703 L 164.312 134.703 Q 162.052 135.823 160.777 137.6 L 160.777 137.6 L 160.777 137.6 Q 160.275 138.257 160.275 138.933 L 160.275 138.933 L 160.275 138.933 Q 160.275 139.609 161.202 140.15 L 161.202 140.15 L 161.202 140.15 Q 161.588 140.381 162.515 140.884 L 162.515 140.884 L 162.515 140.884 Q 163.442 141.386 163.829 141.618 L 163.829 141.618 L 163.829 141.618 Q 164.215 141.849 164.756 142.352 L 164.756 142.352 L 164.756 142.352 Q 165.297 142.854 165.335 143.279 L 165.335 143.279 L 165.335 143.279 Q 165.529 144.438 164.254 145.828 L 164.254 145.828 L 164.254 145.828 Q 162.438 147.837 158.845 148.648 L 158.845 148.648 L 158.845 148.648 Q 158.034 148.842 157.204 148.842 L 157.204 148.842 L 157.204 148.842 Q 156.373 148.842 156.064 148.223 L 156.064 148.223 L 156.064 148.223 Q 155.948 148.069 155.948 147.741 L 155.948 147.741 L 155.948 147.741 Q 155.948 147.412 156.566 146.678 L 156.566 146.678 L 156.566 146.678 Q 157.146 146.099 158.42 145.558 L 158.42 145.558 L 158.42 145.558 Q 158.536 145.519 158.614 145.597 L 158.614 145.597 L 158.614 145.597 Q 158.691 145.674 158.652 145.79 L 158.652 145.79 L 158.652 145.79 Q 158.614 145.906 158.247 146.06 L 158.247 146.06 L 158.247 146.06 Q 157.88 146.215 157.455 146.794 Z " fill="rgb(114,187,255)"/></svg>